<?xml version="1.0" encoding="UTF-8"?>
<svg id="_レイヤー_2" data-name="レイヤー 2" xmlns="http://www.w3.org/2000/svg" viewBox="0 0 996.18 663.55">
  <defs>
    <style>
      .cls-1 {
        fill: #fff;
        stroke-width: 0px;
      }
    </style>
  </defs>
  <g id="_4" data-name="4">
    <path class="cls-1" d="m760.21,663.55h0c0-173.73-118.7-315.08-264.59-315.08s-264.59,141.34-264.59,315.07h0s529.18,0,529.18,0Z"/>
    <ellipse class="cls-1" cx="495.62" cy="163.24" rx="144.89" ry="163.24"/>
    <ellipse class="cls-1" cx="774.85" cy="186.74" rx="121.2" ry="136.55"/>
    <path class="cls-1" d="m774.85,339.29c-48.53,0-93.44,18.75-129.97,50.41,62.18,47.61,107.17,124,121.42,213.15h229.88c0-145.33-99.29-263.56-221.33-263.56Z"/>
    <ellipse class="cls-1" cx="221.33" cy="186.74" rx="121.2" ry="136.55"/>
    <path class="cls-1" d="m348.96,387.72c-36.1-30.46-80.12-48.43-127.63-48.43C99.29,339.29,0,457.52,0,602.85h224.92c14.45-90.39,60.5-167.67,124.03-215.13Z"/>
  </g>
</svg>