<svg id="delete_9580340" xmlns="http://www.w3.org/2000/svg" width="24.475" height="25.731" viewBox="0 0 24.475 25.731">
  <g id="layer3_10_" transform="translate(0)">
    <path id="icon-delete" d="M11.508,48.693A2.106,2.106,0,0,0,9.421,50.78v1.97H2.887A1.075,1.075,0,0,0,2.878,54.9H4.855V71.319a3.121,3.121,0,0,0,3.1,3.1h12.17a3.121,3.121,0,0,0,3.1-3.1V54.9H25.2a1.076,1.076,0,0,0,1.08-1.071v-.009a1.076,1.076,0,0,0-1.08-1.071H18.67v-1.97a2.106,2.106,0,0,0-2.087-2.087H11.508Zm.063,2.153h4.945v1.9H11.572ZM7.008,54.9H21.082V71.32a.938.938,0,0,1-.954.954H7.958a.937.937,0,0,1-.952-.954Zm5.007,3.93a1.076,1.076,0,0,0-1.08,1.071v6.089a1.076,1.076,0,0,0,1.071,1.08h.009a1.076,1.076,0,0,0,1.073-1.078V59.912a1.076,1.076,0,0,0-1.071-1.08h0Zm4.058,0A1.076,1.076,0,0,0,15,59.912v6.08a1.071,1.071,0,1,0,2.142,0v-6.08A1.074,1.074,0,0,0,16.073,58.832Z" transform="translate(-1.807 -48.693)" fill="red"/>
  </g>
</svg>
