<svg id="pencil_167090" xmlns="http://www.w3.org/2000/svg" width="20.251" height="20.253" viewBox="0 0 20.251 20.253">
  <g id="グループ_1095" data-name="グループ 1095" transform="translate(0 0)">
    <path id="パス_6242" data-name="パス 6242" d="M19.166,1.118a3.812,3.812,0,0,0-5.394,0L1.457,13.432a.676.676,0,0,0-.18.33L.046,19.447a.665.665,0,0,0,.791.791l5.685-1.232a.676.676,0,0,0,.33-.18L19.166,6.512A3.819,3.819,0,0,0,19.166,1.118Zm-17.6,17.6.755-3.483,2.729,2.729Zm4.816-1.3L2.868,13.9,13.645,3.125l3.513,3.513ZM18.225,5.571,18.1,5.7,14.586,2.185l.126-.126a2.484,2.484,0,1,1,3.513,3.513Z" transform="translate(-0.031 0)" fill="#484848"/>
  </g>
</svg>
