<?xml version="1.0" encoding="UTF-8"?>
<svg id="_レイヤー_2" data-name="レイヤー 2" xmlns="http://www.w3.org/2000/svg" viewBox="0 0 77.58 77.58">
  <defs>
    <style>
      .cls-1 {
        fill: #fff;
        stroke-width: 0px;
      }
    </style>
  </defs>
  <g id="icon">
    <g>
      <path class="cls-1" d="m38.79,77.58C17.4,77.58,0,60.18,0,38.79S17.4,0,38.79,0s38.79,17.4,38.79,38.79-17.4,38.79-38.79,38.79Zm0-74.25C19.24,3.34,3.34,19.24,3.34,38.79s15.91,35.46,35.46,35.46,35.46-15.91,35.46-35.46S58.34,3.34,38.79,3.34Z"/>
      <path class="cls-1" d="m59.6,31.39c-1.05-7.69-9.97-11.75-16.51-7.57-2.35,1.5-3.65,3.69-4.3,5.17-.66-1.49-1.95-3.67-4.3-5.17-6.54-4.18-15.45-.12-16.51,7.57-.83,6.09,2.83,15.64,20.81,29.46,17.98-13.82,21.64-23.37,20.81-29.46Z"/>
    </g>
  </g>
</svg>