<?xml version="1.0" encoding="UTF-8"?>
<svg xmlns="http://www.w3.org/2000/svg" xmlns:xlink="http://www.w3.org/1999/xlink" width="45px" height="27px" viewBox="0 0 45 27" version="1.1">
<g id="surface1">
<path style=" stroke:none;fill-rule:nonzero;fill:rgb(34.117647%,64.313725%,100%);fill-opacity:1;" d="M 43.617188 15.804688 C 43.371094 15.492188 42.519531 14.808594 42.519531 14.808594 C 43.160156 15.734375 43.539062 16.867188 43.539062 16.867188 L 43.828125 16.660156 C 44.351562 17.464844 44.710938 18.421875 44.046875 19.230469 C 43.679688 19.675781 43.160156 20.082031 42.613281 20.253906 C 42.320312 20.34375 42.003906 20.363281 41.691406 20.328125 C 41.878906 19.53125 40.507812 17.316406 40.050781 16.84375 C 39.773438 16.558594 38.949219 15.84375 38.949219 15.84375 C 39.589844 16.769531 39.96875 17.90625 39.96875 17.90625 L 40.261719 17.699219 C 40.261719 17.699219 41.636719 19.703125 41.316406 20.25 C 40.867188 20.125 40.453125 19.882812 40.148438 19.542969 C 40.109375 19.492188 40.074219 19.445312 40.042969 19.40625 C 40.003906 19.347656 39.96875 19.289062 39.921875 19.230469 L 39.652344 18.839844 C 39.152344 18.109375 38.066406 16.539062 37.230469 15.324219 C 39.59375 14.835938 41.328125 14.488281 41.5 14.054688 C 41.914062 13.007812 39.519531 10.839844 38.214844 9.558594 C 33.375 4.808594 28.289062 0.246094 21.71875 0.246094 C 15.753906 0.246094 12.316406 3.335938 11.730469 5.164062 C 11.722656 5.191406 11.714844 5.214844 11.707031 5.242188 C 6.703125 3.453125 0.660156 1.484375 0.453125 1.621094 C 0.152344 1.828125 0.0273438 3.476562 1.390625 4.707031 C 2.734375 5.921875 7.96875 6.832031 11.414062 7.300781 C 11.449219 9.59375 12.699219 11.945312 15.636719 13.433594 C 15.855469 13.546875 16.074219 13.652344 16.296875 13.757812 C 16.589844 14.359375 16.976562 14.949219 17.441406 15.199219 C 17.964844 15.484375 18.269531 15.679688 18.441406 15.828125 C 18.210938 16.183594 18.074219 16.667969 18.074219 17.214844 C 18.074219 18.320312 18.648438 19.191406 19.386719 19.191406 C 19.929688 19.191406 20.382812 18.714844 20.585938 18.027344 C 21.449219 19.269531 22.757812 21.152344 23.324219 21.972656 L 23.597656 22.363281 C 23.640625 22.433594 23.691406 22.503906 23.742188 22.574219 C 24.226562 23.378906 24.175781 24.527344 23.632812 25.28125 C 23.289062 25.75 22.738281 26.109375 22.203125 26.3125 C 21.226562 26.675781 20.460938 26.007812 19.894531 25.234375 L 20.1875 25.027344 C 20.1875 25.027344 19.261719 24.277344 18.621094 23.351562 C 18.621094 23.351562 18.96875 24.402344 19.171875 24.742188 C 20.164062 26.378906 21.371094 27.488281 23.1875 26.183594 C 23.742188 25.824219 24.195312 25.234375 24.34375 24.570312 C 24.4375 24.160156 24.460938 23.726562 24.390625 23.308594 C 24.6875 23.550781 25.019531 23.683594 25.351562 23.550781 C 25.464844 23.574219 25.574219 23.59375 25.6875 23.609375 C 26.351562 23.6875 27.050781 23.457031 27.570312 23.046875 C 29.390625 21.746094 28.773438 20.214844 27.59375 18.714844 C 27.347656 18.402344 26.492188 17.714844 26.492188 17.714844 C 27.132812 18.644531 27.511719 19.777344 27.511719 19.777344 L 27.804688 19.570312 C 28.328125 20.375 28.6875 21.332031 28.023438 22.140625 C 27.65625 22.585938 27.136719 22.992188 26.589844 23.164062 C 26.292969 23.253906 25.976562 23.273438 25.664062 23.238281 C 25.851562 22.441406 24.484375 20.226562 24.023438 19.75 C 23.75 19.46875 22.925781 18.753906 22.925781 18.753906 C 23.566406 19.679688 23.945312 20.816406 23.945312 20.816406 L 24.234375 20.609375 C 24.234375 20.609375 25.609375 22.613281 25.289062 23.160156 C 24.84375 23.035156 24.429688 22.792969 24.125 22.453125 C 24.085938 22.402344 24.050781 22.355469 24.019531 22.316406 C 23.980469 22.257812 23.941406 22.199219 23.898438 22.140625 L 23.628906 21.75 C 23.011719 20.859375 21.527344 18.707031 20.6875 17.488281 C 20.695312 17.398438 20.703125 17.304688 20.703125 17.207031 C 20.703125 16.445312 20.429688 15.796875 20.015625 15.464844 L 20.574219 15.382812 C 26.433594 17.089844 31.5 16.46875 34.613281 15.867188 C 34.832031 16.125 35.109375 16.277344 35.417969 16.277344 C 35.855469 16.277344 36.238281 15.96875 36.472656 15.484375 C 36.59375 15.457031 36.710938 15.433594 36.824219 15.410156 C 37.679688 16.640625 38.832031 18.300781 39.355469 19.054688 L 39.628906 19.445312 C 39.671875 19.519531 39.722656 19.589844 39.773438 19.65625 C 40.257812 20.464844 40.207031 21.613281 39.664062 22.367188 C 39.320312 22.832031 38.769531 23.195312 38.234375 23.394531 C 37.261719 23.761719 36.492188 23.09375 35.929688 22.316406 L 36.21875 22.109375 C 36.21875 22.109375 35.296875 21.363281 34.65625 20.4375 C 34.65625 20.4375 35 21.488281 35.207031 21.828125 C 36.195312 23.464844 37.40625 24.570312 39.222656 23.269531 C 39.777344 22.910156 40.226562 22.316406 40.375 21.65625 C 40.46875 21.246094 40.492188 20.8125 40.421875 20.394531 C 40.71875 20.636719 41.054688 20.769531 41.386719 20.636719 C 41.496094 20.660156 41.609375 20.679688 41.71875 20.691406 C 42.382812 20.773438 43.082031 20.539062 43.601562 20.132812 C 45.421875 18.832031 44.804688 17.300781 43.625 15.800781 Z M 19.382812 18.535156 C 19.066406 18.535156 18.710938 17.96875 18.710938 17.210938 C 18.710938 17.089844 18.722656 16.976562 18.738281 16.867188 C 18.875 16.960938 19.125 17.070312 19.515625 16.980469 C 19.722656 16.9375 19.878906 16.824219 20 16.695312 C 20.035156 16.851562 20.054688 17.027344 20.054688 17.214844 C 20.054688 17.972656 19.703125 18.539062 19.382812 18.539062 Z M 19.382812 18.535156 "/>
<path style=" stroke:none;fill-rule:nonzero;fill:rgb(34.117647%,64.313725%,100%);fill-opacity:1;" d="M 21.667969 27 C 21.53125 27 21.398438 26.984375 21.261719 26.957031 C 20.203125 26.738281 19.441406 25.660156 18.964844 24.867188 C 18.75 24.515625 18.425781 23.539062 18.390625 23.429688 L 18.816406 23.210938 C 19.429688 24.09375 20.324219 24.824219 20.332031 24.832031 L 20.585938 25.035156 L 20.242188 25.28125 C 20.863281 26.054688 21.480469 26.316406 22.117188 26.078125 C 22.664062 25.871094 23.144531 25.527344 23.4375 25.128906 C 23.921875 24.460938 23.960938 23.410156 23.535156 22.695312 C 23.496094 22.644531 23.441406 22.570312 23.390625 22.488281 L 20.644531 18.53125 C 20.359375 19.097656 19.902344 19.433594 19.382812 19.433594 C 18.511719 19.433594 17.828125 18.457031 17.828125 17.210938 C 17.828125 16.726562 17.933594 16.265625 18.121094 15.890625 C 17.9375 15.761719 17.671875 15.597656 17.328125 15.414062 C 16.898438 15.183594 16.492188 14.6875 16.117188 13.941406 C 15.921875 13.847656 15.726562 13.75 15.527344 13.652344 C 12.875 12.308594 11.300781 10.078125 11.179688 7.515625 C 7.980469 7.074219 2.648438 6.167969 1.230469 4.890625 C 0.257812 4.015625 -0.03125 2.90625 0.0195312 2.160156 C 0.0351562 1.949219 0.09375 1.570312 0.320312 1.417969 C 0.761719 1.125 9.972656 4.367188 11.554688 4.929688 C 12.347656 2.886719 16.007812 0 21.71875 0 C 28.289062 0 33.351562 4.441406 38.382812 9.390625 L 38.792969 9.792969 C 40.632812 11.578125 42.125 13.136719 41.722656 14.152344 C 41.519531 14.664062 40.316406 14.941406 37.636719 15.496094 L 40.121094 19.097656 C 40.160156 19.148438 40.203125 19.210938 40.246094 19.277344 L 40.335938 19.394531 C 40.539062 19.617188 40.808594 19.804688 41.117188 19.929688 C 41.054688 19.554688 40.691406 18.796875 40.195312 18.046875 L 39.84375 18.296875 L 39.742188 17.984375 C 39.738281 17.976562 39.363281 16.871094 38.753906 15.988281 L 39.105469 15.660156 C 39.140625 15.6875 39.941406 16.382812 40.222656 16.671875 C 40.597656 17.0625 41.890625 19.027344 41.945312 20.101562 C 42.15625 20.105469 42.359375 20.078125 42.542969 20.023438 C 43.003906 19.875 43.484375 19.53125 43.859375 19.074219 C 44.296875 18.546875 44.261719 17.867188 43.757812 17.011719 L 43.414062 17.257812 L 43.308594 16.949219 C 43.308594 16.9375 42.933594 15.832031 42.320312 14.949219 L 42.667969 14.613281 C 42.757812 14.683594 43.550781 15.328125 43.808594 15.648438 C 44.378906 16.375 45.117188 17.464844 44.964844 18.558594 C 44.871094 19.222656 44.457031 19.820312 43.734375 20.335938 C 43.152344 20.792969 42.386719 21.023438 41.683594 20.9375 C 41.589844 20.929688 41.492188 20.914062 41.394531 20.894531 C 41.214844 20.949219 40.976562 20.964844 40.695312 20.851562 C 40.699219 21.136719 40.671875 21.429688 40.605469 21.714844 C 40.445312 22.410156 39.976562 23.070312 39.34375 23.480469 C 38.632812 23.988281 37.941406 24.183594 37.292969 24.050781 C 36.230469 23.828125 35.46875 22.75 34.992188 21.957031 C 34.777344 21.605469 34.453125 20.628906 34.417969 20.519531 L 34.84375 20.300781 C 35.457031 21.183594 36.351562 21.914062 36.363281 21.921875 L 36.613281 22.125 L 36.269531 22.371094 C 36.894531 23.144531 37.511719 23.40625 38.144531 23.167969 C 38.691406 22.960938 39.171875 22.617188 39.464844 22.222656 C 39.949219 21.546875 39.992188 20.5 39.5625 19.785156 C 39.519531 19.734375 39.46875 19.65625 39.417969 19.578125 L 36.714844 15.683594 L 36.628906 15.703125 C 36.339844 16.222656 35.902344 16.523438 35.414062 16.523438 C 35.089844 16.523438 34.78125 16.386719 34.523438 16.136719 C 29.542969 17.074219 24.972656 16.910156 20.554688 15.632812 L 20.5 15.640625 C 20.777344 16.046875 20.9375 16.597656 20.9375 17.207031 C 20.9375 17.28125 20.933594 17.351562 20.929688 17.417969 L 24.089844 22 C 24.132812 22.050781 24.175781 22.117188 24.21875 22.179688 L 24.308594 22.300781 C 24.507812 22.523438 24.78125 22.710938 25.089844 22.835938 C 25.027344 22.460938 24.660156 21.703125 24.167969 20.953125 L 23.816406 21.203125 L 23.710938 20.894531 C 23.707031 20.882812 23.335938 19.777344 22.722656 18.894531 L 23.078125 18.566406 C 23.113281 18.59375 23.914062 19.289062 24.191406 19.578125 C 24.570312 19.96875 25.863281 21.933594 25.917969 23.007812 C 26.128906 23.007812 26.328125 22.984375 26.515625 22.929688 C 26.976562 22.78125 27.457031 22.4375 27.832031 21.980469 C 28.269531 21.453125 28.234375 20.777344 27.730469 19.917969 L 27.386719 20.164062 L 27.28125 19.855469 C 27.277344 19.84375 26.90625 18.738281 26.292969 17.855469 L 26.640625 17.519531 C 26.730469 17.589844 27.523438 18.234375 27.777344 18.558594 C 28.347656 19.28125 29.085938 20.375 28.933594 21.464844 C 28.839844 22.128906 28.425781 22.726562 27.703125 23.242188 C 27.121094 23.703125 26.351562 23.929688 25.65625 23.847656 C 25.558594 23.835938 25.460938 23.820312 25.363281 23.800781 C 25.1875 23.855469 24.949219 23.875 24.667969 23.761719 C 24.671875 24.046875 24.640625 24.339844 24.574219 24.621094 C 24.414062 25.316406 23.945312 25.976562 23.3125 26.386719 C 22.75 26.792969 22.195312 26.996094 21.667969 26.996094 Z M 19.378906 24.621094 C 19.480469 24.785156 19.582031 24.941406 19.679688 25.082031 L 19.789062 25.003906 C 19.675781 24.90625 19.535156 24.773438 19.378906 24.621094 Z M 24.539062 23.117188 C 24.785156 23.316406 24.964844 23.363281 25.089844 23.359375 C 24.722656 23.238281 24.386719 23.042969 24.113281 22.792969 C 24.175781 22.949219 24.222656 23.117188 24.257812 23.28125 L 24.535156 23.117188 Z M 35.410156 21.714844 C 35.511719 21.878906 35.609375 22.035156 35.710938 22.175781 L 35.816406 22.097656 C 35.707031 22 35.566406 21.871094 35.410156 21.714844 Z M 40.566406 20.207031 C 40.8125 20.40625 41.003906 20.453125 41.121094 20.449219 C 40.753906 20.328125 40.417969 20.132812 40.140625 19.886719 C 40.207031 20.042969 40.253906 20.207031 40.285156 20.375 Z M 23.839844 19.914062 C 23.929688 20.117188 24 20.292969 24.054688 20.433594 L 24.179688 20.347656 C 24.050781 20.164062 23.9375 20.019531 23.847656 19.925781 C 23.84375 19.921875 23.839844 19.917969 23.839844 19.917969 Z M 27.40625 18.875 C 27.496094 19.078125 27.570312 19.253906 27.625 19.394531 L 27.734375 19.316406 C 27.636719 19.171875 27.527344 19.027344 27.40625 18.875 Z M 0.566406 1.871094 C 0.53125 1.949219 0.488281 2.140625 0.5 2.425781 C 0.515625 2.785156 0.652344 3.710938 1.550781 4.523438 C 2.535156 5.414062 6.140625 6.335938 11.441406 7.058594 L 11.648438 7.085938 L 11.652344 7.296875 C 11.691406 9.761719 13.183594 11.917969 15.742188 13.210938 C 15.960938 13.324219 16.175781 13.429688 16.398438 13.535156 L 16.472656 13.570312 L 16.507812 13.644531 C 16.84375 14.332031 17.203125 14.792969 17.550781 14.980469 C 18.046875 15.25 18.390625 15.464844 18.589844 15.640625 L 18.753906 15.78125 L 18.632812 15.960938 C 18.425781 16.289062 18.304688 16.734375 18.304688 17.210938 C 18.304688 18.164062 18.789062 18.941406 19.378906 18.941406 C 19.792969 18.941406 20.171875 18.554688 20.347656 17.953125 L 20.453125 17.589844 L 20.429688 17.558594 L 20.4375 17.46875 C 20.445312 17.382812 20.453125 17.300781 20.453125 17.210938 C 20.453125 16.550781 20.226562 15.953125 19.859375 15.660156 L 19.421875 15.308594 L 20.582031 15.136719 L 20.632812 15.148438 C 25.03125 16.429688 29.585938 16.585938 34.558594 15.628906 L 34.695312 15.601562 L 34.785156 15.707031 C 34.914062 15.855469 35.125 16.035156 35.410156 16.035156 C 35.742188 16.035156 36.046875 15.792969 36.25 15.375 L 36.304688 15.269531 L 36.925781 15.140625 L 36.941406 15.164062 L 37.304688 15.0625 C 39.089844 14.695312 41.113281 14.277344 41.273438 13.964844 C 41.585938 13.175781 39.628906 11.277344 38.460938 10.144531 L 38.046875 9.742188 C 33.089844 4.867188 28.109375 0.492188 21.71875 0.492188 C 15.554688 0.492188 12.4375 3.753906 11.960938 5.238281 L 11.882812 5.480469 L 11.625 5.476562 C 6.46875 3.632812 1.34375 1.988281 0.566406 1.871094 Z M 39.867188 17.007812 C 39.957031 17.207031 40.03125 17.386719 40.085938 17.527344 L 40.207031 17.4375 C 40.082031 17.257812 39.964844 17.109375 39.875 17.015625 C 39.871094 17.011719 39.871094 17.011719 39.867188 17.007812 Z M 43.433594 15.964844 C 43.527344 16.167969 43.601562 16.347656 43.652344 16.488281 L 43.761719 16.40625 C 43.664062 16.265625 43.554688 16.117188 43.433594 15.964844 Z M 19.382812 18.78125 C 18.886719 18.78125 18.46875 18.0625 18.46875 17.210938 C 18.46875 17.074219 18.480469 16.949219 18.5 16.828125 L 18.558594 16.441406 L 18.875 16.664062 C 18.976562 16.734375 19.164062 16.808594 19.464844 16.738281 C 19.597656 16.710938 19.71875 16.636719 19.820312 16.527344 L 20.125 16.191406 L 20.230469 16.636719 C 20.273438 16.820312 20.292969 17.011719 20.292969 17.210938 C 20.292969 18.0625 19.878906 18.78125 19.382812 18.78125 Z M 18.949219 17.222656 C 18.953125 17.878906 19.253906 18.289062 19.382812 18.289062 C 19.492188 18.289062 19.8125 17.917969 19.8125 17.210938 C 19.8125 17.183594 19.8125 17.15625 19.8125 17.132812 C 19.734375 17.171875 19.652344 17.199219 19.566406 17.21875 C 19.320312 17.273438 19.117188 17.261719 18.953125 17.222656 Z M 18.949219 17.222656 "/>
</g>
</svg>
