<svg id="图层_x0020_1" xmlns="http://www.w3.org/2000/svg" width="10.565" height="10.565" viewBox="0 0 10.565 10.565">
  <path id="パス_6253" data-name="パス 6253" d="M1.55,0H9.016a1.553,1.553,0,0,1,1.55,1.55V9.016a1.553,1.553,0,0,1-1.55,1.55H1.55A1.553,1.553,0,0,1,0,9.016V1.55A1.553,1.553,0,0,1,1.55,0Z" fill="red" fill-rule="evenodd"/>
  <g id="_493084216" transform="translate(4.606 1.784)">
    <path id="_493048552" d="M1.248,5.678,1.107.711A.28.28,0,0,1,1.389.429h.79a.281.281,0,0,1,.282.282L2.32,5.678a.286.286,0,0,1-.282.282H1.53A.285.285,0,0,1,1.248,5.678Z" transform="translate(-1.107 -0.429)" fill-rule="evenodd"/>
    <circle id="_493049368" cx="0.528" cy="0.528" r="0.528" transform="translate(0.144 5.941)" />
  </g>
</svg>