<svg xmlns="http://www.w3.org/2000/svg" width="60" height="34" viewBox="0 0 60 34">
  <g id="Layer_29" transform="translate(-2 -15)">
    <path id="パス_6247" data-name="パス 6247" d="M61.707,24.293l-4-4A1,1,0,0,0,57,20H43V16a1,1,0,0,0-1-1H22a1,1,0,0,0-1,1v4H7a1,1,0,0,0-.707.293l-4,4A1,1,0,0,0,2,25v7a1,1,0,0,0,1,1H61a1,1,0,0,0,1-1V25A1,1,0,0,0,61.707,24.293ZM23,17H41v3H23Zm2,22V38a1,1,0,0,0-1-1H17a1,1,0,0,0-1,1v1H14V35H27v4Zm25,0V35H37v4h2V38a1,1,0,0,1,1-1h7a1,1,0,0,1,1,1v1Zm-4,3V39H41v3Zm6-7v5a1,1,0,0,1-1,1H48v2a1,1,0,0,1-1,1H40a1,1,0,0,1-1-1V41H36a1,1,0,0,1-1-1V35H29v5a1,1,0,0,1-1,1H25v2a1,1,0,0,1-1,1H17a1,1,0,0,1-1-1V41H13a1,1,0,0,1-1-1V35H3a2.772,2.772,0,0,1-1-.18V48a1,1,0,0,0,1,1H61a1,1,0,0,0,1-1V34.82A2.772,2.772,0,0,1,61,35ZM23,42V39H18v3Z" fill="#fff"/>
  </g>
</svg>
