<?xml version="1.0" encoding="UTF-8"?>
<svg id="_レイヤー_2" data-name="レイヤー 2" xmlns="http://www.w3.org/2000/svg" viewBox="0 0 77.58 77.58">
  <defs>
    <style>
      .cls-1 {
        fill: #fff;
        stroke-width: 0px;
      }
    </style>
  </defs>
  <g id="icon">
    <g>
      <path class="cls-1" d="m38.79,77.58C17.4,77.58,0,60.18,0,38.79S17.4,0,38.79,0s38.79,17.4,38.79,38.79-17.4,38.79-38.79,38.79Zm0-74.25C19.24,3.34,3.34,19.24,3.34,38.79s15.91,35.46,35.46,35.46,35.46-15.91,35.46-35.46S58.34,3.34,38.79,3.34Z"/>
      <path class="cls-1" d="m38.77,18.29c-12.71,0-23.01,9.15-23.01,20.43,0,5.74,2.67,10.93,6.97,14.64v8.17l10.31-3.02c1.84.42,3.76.64,5.74.64,12.71,0,23.01-9.15,23.01-20.43s-10.3-20.43-23.01-20.43Z"/>
    </g>
  </g>
</svg>