<svg xmlns="http://www.w3.org/2000/svg" width="17" height="12.293" viewBox="0 0 17 12.293">
  <path id="パス_6224" data-name="パス 6224" d="M15.207,80.093A5.093,5.093,0,0,0,13.461,78.8a2.753,2.753,0,1,0-4.174,0A5.093,5.093,0,0,0,7.54,80.093q-.063.072-.12.148a6.246,6.246,0,0,0-.787-.4,3.345,3.345,0,1,0-4.879,0A6.277,6.277,0,0,0-.533,81.5a2.709,2.709,0,0,0-.689,1.833v2.754A.421.421,0,0,0-.8,86.5h9.99a.421.421,0,0,0,.421-.421V84.229h5.748a.421.421,0,0,0,.421-.421v-2.2a2.244,2.244,0,0,0-.571-1.518Zm-3.834-5a1.911,1.911,0,1,1-1.911,1.911A1.913,1.913,0,0,1,11.374,75.1Zm-7.18-.044a2.5,2.5,0,1,1-2.5,2.5,2.506,2.506,0,0,1,2.5-2.5Zm4.574,10.61H-.38V83.329A1.866,1.866,0,0,1,.1,82.05a5.429,5.429,0,0,1,2.424-1.6,3.339,3.339,0,0,0,3.34,0,5.429,5.429,0,0,1,2.423,1.6,1.865,1.865,0,0,1,.481,1.279v2.334Zm6.168-2.275H9.61v-.058A2.709,2.709,0,0,0,8.92,81.5a6.328,6.328,0,0,0-.808-.774c.02-.025.04-.05.061-.075a4.245,4.245,0,0,1,1.86-1.237,2.744,2.744,0,0,0,2.68,0,4.245,4.245,0,0,1,1.86,1.237,1.388,1.388,0,0,1,.362.964v1.776Z" transform="translate(1.222 -74.211)" fill="#fff"/>
</svg>
