<?xml version="1.0" encoding="UTF-8"?>
<svg id="_レイヤー_2" data-name="レイヤー 2" xmlns="http://www.w3.org/2000/svg" width="34.99" height="35" viewBox="0 0 34.99 35">
  <defs>
    <style>
      .cls-1 {
        fill: #004fac;
      }

      .cls-2 {
        fill: #57a4ff;
      }
    </style>
  </defs>
  <g id="_レイヤー_1-2" data-name="レイヤー 1">
    <g id="gift_3695132" data-name="gift 3695132">
      <g id="_グループ_1058" data-name="グループ 1058">
        <path id="_パス_6137" data-name="パス 6137" class="cls-2" d="m18.62,3.97h4.51v2.82h-4.51v-2.82Z"/>
        <path id="_パス_6138" data-name="パス 6138" class="cls-2" d="m31.03,8.48v.56H10.72v-.56h8.46v-1.69h3.38v1.69h8.46Z"/>
        <path id="_パス_6139" data-name="パス 6139" class="cls-2" d="m18.62,3.97h4.51v2.82h-4.51v-2.82Z"/>
        <path id="_パス_6140" data-name="パス 6140" class="cls-2" d="m19.18,6.79h3.39v2.26h-3.39v-2.26Z"/>
        <path id="_パス_6141" data-name="パス 6141" class="cls-2" d="m19.18.58c.93,0,1.69.76,1.69,1.69h0v1.69h-1.69c-.93-.02-1.67-.8-1.65-1.74.02-.9.75-1.62,1.65-1.65h0Z"/>
        <path id="_パス_6142" data-name="パス 6142" class="cls-2" d="m22.57,3.97h-1.69v-1.69c0-.93.76-1.69,1.69-1.69.93,0,1.69.76,1.69,1.69,0,.93-.76,1.69-1.69,1.69,0,0,0,0,0,0Z"/>
        <g id="_グループ_1057" data-name="グループ 1057">
          <path id="_パス_6143" data-name="パス 6143" class="cls-2" d="m11.85,28.8c-1.56,0-2.82,1.26-2.82,2.82s1.26,2.82,2.82,2.82c1.56,0,2.82-1.26,2.82-2.82h0c0-1.56-1.26-2.82-2.82-2.82Zm0,3.95c-.62,0-1.13-.51-1.13-1.13s.51-1.13,1.13-1.13c.62,0,1.13.51,1.13,1.13s-.51,1.13-1.13,1.13h0Z"/>
          <path id="_パス_6144" data-name="パス 6144" class="cls-2" d="m29.34,28.8c-1.56,0-2.82,1.26-2.82,2.82,0,1.56,1.26,2.82,2.82,2.82,1.56,0,2.82-1.26,2.82-2.82h0c0-1.56-1.26-2.82-2.82-2.82Zm0,3.95c-.62,0-1.13-.51-1.13-1.13,0-.62.51-1.13,1.13-1.13.62,0,1.13.51,1.13,1.13s-.51,1.13-1.13,1.13h0Z"/>
          <path id="_パス_6145" data-name="パス 6145" class="cls-2" d="m6.71,8.48l1.93,16.35h0s24.09.01,24.09.01l1.69-16.36H6.71Zm8.52,13.54h-2.26v-10.72h2.26v10.72Zm6.77,0h-2.26v-10.72h2.26v10.72Zm6.77,0h-2.26v-10.72h2.27v10.72Z"/>
        </g>
      </g>
      <g id="_グループ_1059" data-name="グループ 1059">
        <path id="_パス_6146" data-name="パス 6146" class="cls-1" d="m11.85,33.31c.93,0,1.69-.76,1.69-1.69s-.76-1.69-1.69-1.69-1.69.76-1.69,1.69h0c0,.93.76,1.69,1.69,1.69Zm0-2.26c.31,0,.56.25.56.56,0,.31-.25.56-.56.56s-.56-.25-.56-.56.25-.56.56-.56h0Z"/>
        <path id="_パス_6147" data-name="パス 6147" class="cls-1" d="m29.34,33.31c.93,0,1.69-.76,1.69-1.69s-.76-1.69-1.69-1.69-1.69.76-1.69,1.69h0c0,.93.76,1.69,1.69,1.69Zm0-2.26c.31,0,.56.25.56.56s-.25.56-.56.56-.56-.25-.56-.56.25-.56.56-.56h0Z"/>
        <path id="_パス_6148" data-name="パス 6148" class="cls-1" d="m33.28,24.34l1.7-15.24c.03-.31-.19-.59-.5-.62-.02,0-.04,0-.06,0h-2.82v-1.13h.56c.31,0,.56-.25.56-.56h0v-2.82c0-.31-.25-.56-.56-.56h-7.64c.64-1.07.28-2.45-.79-3.09-.94-.56-2.15-.36-2.86.47-.82-.94-2.25-1.03-3.18-.2-.81.71-1,1.89-.46,2.82h-7.64c-.31,0-.56.25-.56.56v2.82c0,.31.25.56.56.56h.56v1.13h-3.1l-.46-3.46c-.04-.28-.28-.49-.56-.49H.56c-.31,0-.56.25-.56.56v2.26c0,.31.25.56.56.56h3.05l2.75,20.95c.04.28.28.49.56.49h2.39c-1.25,1.39-1.13,3.53.27,4.78,1.39,1.25,3.53,1.13,4.78-.27,1.15-1.28,1.15-3.23,0-4.51h12.45c-1.25,1.39-1.13,3.53.27,4.78s3.53,1.13,4.78-.27c1.15-1.28,1.15-3.23,0-4.51h1.99c.31,0,.56-.25.56-.56h0v-2.26c0-.31-.25-.56-.56-.56H9.36l-.15-1.13h23.51c.29,0,.53-.22.56-.5h0Zm-1.69-19.81v1.69h-7.9v-1.69h7.9Zm-1.13,2.82v1.13h-7.33v-1.13h7.33Zm-9.03-5.08c0-.62.51-1.13,1.13-1.13s1.13.51,1.13,1.13-.51,1.13-1.13,1.13h-1.13v-1.13Zm1.13,2.26v1.69h-3.39v-1.69h3.39Zm-.56,2.82v1.13h-2.26v-1.13h2.26Zm-2.82-6.21c.62,0,1.13.51,1.13,1.13v1.13h-1.13c-.62,0-1.13-.51-1.13-1.13s.51-1.13,1.13-1.13Zm-.56,6.21v1.13h-7.33v-1.13h7.33Zm-8.46-2.82h7.9v1.69h-7.9v-1.69Zm1.69,29.34c-1.25,0-2.26-1.01-2.25-2.26,0-1.25,1.01-2.26,2.26-2.25,1.25,0,2.25,1.01,2.25,2.26,0,1.25-1.01,2.26-2.26,2.26h0Zm17.49,0c-1.25,0-2.26-1.01-2.26-2.26,0-1.25,1.01-2.26,2.26-2.26s2.26,1.01,2.26,2.26h0c0,1.25-1.01,2.26-2.26,2.26Zm3.95-6.77v1.13H7.43L4.68,7.29c-.04-.28-.28-.49-.56-.49H1.13v-1.13h4.42l2.75,20.95c.04.28.28.49.56.49h24.42Zm-24.23-3.39l-1.86-14.11h26.58l-1.57,14.11H9.06Z"/>
        <path id="_パス_6149" data-name="パス 6149" class="cls-1" d="m22,10.74h-2.26c-.31,0-.56.25-.56.56h0v10.72c0,.31.25.56.56.56h2.26c.31,0,.56-.25.56-.56h0v-10.72c0-.31-.25-.56-.56-.56h0Zm-.56,10.72h-1.13v-9.59h1.13v9.59Z"/>
        <path id="_パス_6150" data-name="パス 6150" class="cls-1" d="m15.23,10.74h-2.26c-.31,0-.56.25-.56.56h0v10.72c0,.31.25.56.56.56h2.26c.31,0,.56-.25.56-.56h0v-10.72c0-.31-.25-.56-.56-.56h0Zm-.56,10.72h-1.13v-9.59h1.13v9.59Z"/>
        <path id="_パス_6151" data-name="パス 6151" class="cls-1" d="m28.77,10.74h-2.26c-.31,0-.56.25-.56.56h0v10.72c0,.31.25.56.56.56h2.26c.31,0,.56-.25.56-.56h0v-10.72c0-.31-.25-.56-.56-.56h0Zm-.56,10.72h-1.13v-9.59h1.13v9.59Z"/>
      </g>
    </g>
  </g>
</svg>