<svg xmlns="http://www.w3.org/2000/svg" width="28.546" height="25.089" viewBox="0 0 28.546 25.089">
  <g id="グループ_1076" data-name="グループ 1076" transform="translate(0 -31)">
    <path id="パス_6221" data-name="パス 6221" d="M26.765,49.886a9.464,9.464,0,0,0-1.431-12.627,11.166,11.166,0,0,0-6.287-2.835c-.015-.018-.03-.036-.046-.053A11.3,11.3,0,0,0,10.871,31C4.965,31,0,35.4,0,41.036a9.42,9.42,0,0,0,1.779,5.505L.151,51.654a.836.836,0,0,0,1.176,1l4.952-2.518a11.483,11.483,0,0,0,3.212.856,11.226,11.226,0,0,0,8.181,3.426,11.7,11.7,0,0,0,4.592-.937L27.217,56a.836.836,0,0,0,1.176-1ZM6.617,48.452a.836.836,0,0,0-.738.01L2.352,50.256,3.5,46.639a.836.836,0,0,0-.138-.769,7.8,7.8,0,0,1-1.693-4.835c0-4.611,4.127-8.363,9.2-8.363a9.806,9.806,0,0,1,5.6,1.733C11.1,34.946,6.8,39.142,6.8,44.381a9.376,9.376,0,0,0,1.205,4.6,9.676,9.676,0,0,1-1.39-.533Zm16.048,3.355a.836.836,0,0,0-.738-.01,9.973,9.973,0,0,1-4.255.947c-5.072,0-9.2-3.752-9.2-8.363s4.127-8.363,9.2-8.363,9.2,3.752,9.2,8.363a7.8,7.8,0,0,1-1.693,4.835.837.837,0,0,0-.138.769L26.192,53.6Z" transform="translate(0 0)" fill="#fff"/>
    <circle id="楕円形_80" data-name="楕円形 80" cx="0.836" cy="0.836" r="0.836" transform="translate(13.436 43.545)" fill="#fff"/>
    <circle id="楕円形_81" data-name="楕円形 81" cx="0.836" cy="0.836" r="0.836" transform="translate(16.781 43.545)" fill="#fff"/>
    <circle id="楕円形_82" data-name="楕円形 82" cx="0.836" cy="0.836" r="0.836" transform="translate(20.126 43.545)" fill="#fff"/>
  </g>
</svg>
