<svg xmlns="http://www.w3.org/2000/svg" width="37" height="28.202" viewBox="0 0 37 28.202">
  <g id="グループ_1069" data-name="グループ 1069" transform="translate(0.001 -60.871)">
    <path id="パス_6192" data-name="パス 6192" d="M31.321,63.209a30.515,30.515,0,0,0-7.531-2.336.114.114,0,0,0-.121.057,21.248,21.248,0,0,0-.938,1.926,28.166,28.166,0,0,0-8.459,0,19.5,19.5,0,0,0-.952-1.926.119.119,0,0,0-.121-.057,30.427,30.427,0,0,0-7.531,2.336.108.108,0,0,0-.05.043A31.227,31.227,0,0,0,.152,84.312.127.127,0,0,0,.2,84.4a30.683,30.683,0,0,0,9.239,4.67.12.12,0,0,0,.13-.043,21.93,21.93,0,0,0,1.89-3.074.117.117,0,0,0-.064-.163,20.211,20.211,0,0,1-2.886-1.376.119.119,0,0,1-.012-.2c.194-.145.388-.3.573-.449a.115.115,0,0,1,.12-.016,21.881,21.881,0,0,0,18.595,0,.114.114,0,0,1,.121.015c.185.153.379.305.575.451a.119.119,0,0,1-.01.2,18.96,18.96,0,0,1-2.888,1.374.118.118,0,0,0-.063.164,24.633,24.633,0,0,0,1.889,3.073.117.117,0,0,0,.13.044,30.58,30.58,0,0,0,9.254-4.67.119.119,0,0,0,.048-.085,31.022,31.022,0,0,0-5.471-21.06A.094.094,0,0,0,31.321,63.209Zm-18.958,16.9a3.754,3.754,0,0,1,0-7.458,3.754,3.754,0,0,1,0,7.458Zm12.294,0a3.754,3.754,0,0,1,0-7.458,3.754,3.754,0,0,1,0,7.458Z" transform="translate(0)" fill="#5865f2"/>
  </g>
</svg>
