<svg xmlns="http://www.w3.org/2000/svg" xmlns:xlink="http://www.w3.org/1999/xlink" width="37.451" height="37.451" viewBox="0 0 37.451 37.451">
  <defs>
    <linearGradient id="linear-gradient" x1="0.5" x2="0.5" y2="1" gradientUnits="objectBoundingBox">
      <stop offset="0" stop-color="#1fbbee"/>
      <stop offset="1" stop-color="#4764af"/>
    </linearGradient>
  </defs>
  <path id="パス_6175" data-name="パス 6175" d="M28.537,13.16H8.913A1.716,1.716,0,0,0,7.2,14.874v9.814A1.716,1.716,0,0,0,8.913,26.4H9.922v2.715a.585.585,0,0,0,1,.414L14.05,26.4H28.537a1.716,1.716,0,0,0,1.714-1.714V14.874a1.716,1.716,0,0,0-1.714-1.714Zm.544,11.528a.544.544,0,0,1-.544.544H13.808a.585.585,0,0,0-.414.171l-2.3,2.3V25.818a.585.585,0,0,0-.585-.585H8.913a.544.544,0,0,1-.544-.544V14.874a.544.544,0,0,1,.544-.544H28.537a.544.544,0,0,1,.544.544Zm-2.13-2.737a3.792,3.792,0,1,0-.827.828l.678.678a.585.585,0,0,0,.828-.828Zm-3.058.387a2.62,2.62,0,1,1,2.216-1.228l-.744-.744a.585.585,0,0,0-.828.828l.744.744A2.6,2.6,0,0,1,23.893,22.338Zm-6.048-5.784a.585.585,0,0,0-1.083,0L14.3,22.566a.585.585,0,1,0,1.083.444l.659-1.61h2.523l.659,1.609a.585.585,0,0,0,1.083-.444Zm-1.324,3.675L17.3,18.32l.782,1.91ZM14.3,19.671a.585.585,0,0,1-.585.585H11.093v2.532a.585.585,0,1,1-1.17,0V16.776a.585.585,0,0,1,.585-.585h3.926a.585.585,0,1,1,0,1.17H11.093v1.724h2.619a.585.585,0,0,1,.585.585ZM18.725,0A18.725,18.725,0,1,0,37.451,18.725,18.747,18.747,0,0,0,18.725,0Zm0,36.28A17.553,17.553,0,1,1,36.28,18.725,17.575,17.575,0,0,1,18.725,36.28Z" transform="translate(0)" fill="url(#linear-gradient)"/>
</svg>
