<?xml version="1.0" encoding="UTF-8"?>
<svg id="_レイヤー_2" data-name="レイヤー 2" xmlns="http://www.w3.org/2000/svg" width="26.56" height="35.87" viewBox="0 0 26.56 35.87">
  <defs>
    <style>
      .cls-1 {
        fill: #1b74b9;
      }

      .cls-1, .cls-2, .cls-3 {
        fill-rule: evenodd;
      }

      .cls-2 {
        fill: #fff;
      }

      .cls-3 {
        fill: #0cf;
      }
    </style>
  </defs>
  <g id="_レイヤー_1-2" data-name="レイヤー 1">
    <g id="Layer_1">
      <path id="_パス_6132" data-name="パス 6132" class="cls-1" d="m26.06,35.87H.53c-.29,0-.53-.23-.53-.53h0V.54C0,.25.24.02.53.02,2.33.02,20.03-.04,20.21.05c.06.03.12.07.17.12l6.03,5.74c.11.09.17.23.15.37v29.06c.02.27-.17.5-.44.53-.02,0-.04,0-.05,0ZM12.57,6.87H3.3c-.29-.03-.5-.28-.47-.57.02-.25.22-.45.47-.47h9.23c.29.02.51.28.48.57-.02.25-.21.44-.45.48Zm0-2.62H3.3c-.29-.03-.5-.28-.47-.57.02-.25.22-.45.47-.47h9.23c.29.02.51.28.48.57-.02.25-.21.44-.45.48Zm8.77,28.3H2.75c-.29-.03-.5-.28-.47-.57.02-.25.22-.45.47-.47h18.59c.29.03.5.28.47.57-.02.25-.22.45-.47.47h0Zm-7.58-3.14H2.75c-.29-.03-.5-.28-.47-.57.02-.25.22-.45.47-.47h11.01c.29.03.5.28.47.57-.02.25-.22.45-.47.47h0Zm-1.9-6.91c-.13,0-.26-.06-.35-.15l-3.47-3.43c-.59-.6-.59-1.56,0-2.16.57-.59,1.51-.61,2.11-.04.02.01.03.03.04.04l1.64,1.66,4.54-4.55c.6-.59,1.57-.59,2.16.01.28.29.44.67.44,1.07,0,.4-.15.79-.44,1.08l-6.33,6.32c-.08.07-.18.11-.29.12t-.06.03h0Zm-2.74-5.18c-.27,0-.49.22-.49.49,0,.13.05.26.15.35l3.09,3.09,5.97-5.95c.19-.21.17-.53-.04-.72-.2-.18-.5-.17-.69.01l-4.9,4.9c-.27.28-.58.15-.81-.08l-1.93-1.95c-.08-.11-.21-.17-.34-.15Zm4.17,9c-4.62,0-8.37-3.75-8.37-8.37,0-4.62,3.75-8.37,8.37-8.37,4.62,0,8.37,3.75,8.37,8.37-.01,4.62-3.75,8.35-8.37,8.36h0Zm0-15.7c-4.06,0-7.35,3.28-7.35,7.34,0,4.06,3.28,7.35,7.34,7.35,4.06,0,7.35-3.28,7.35-7.34h0c0-4.06-3.29-7.35-7.34-7.35h0ZM1.05,34.85h24.52V6.81l-5.42.06c-.28,0-.51-.22-.53-.5l-.05-5.33H1.05v33.81ZM20.58,1.74l.06,4.11,4.2-.06-4.26-4.05Z"/>
      <g id="_グループ_1056" data-name="グループ 1056">
        <path id="_パス_6133" data-name="パス 6133" class="cls-3" d="m1.05,1.04v33.81h24.52V6.81l-5.42.06c-.28,0-.51-.22-.53-.5l-.06-5.34H1.05Zm11.48,4.78c.29.02.51.28.48.57-.02.25-.21.44-.45.48H3.3c-.29-.03-.5-.28-.47-.57.02-.25.22-.45.47-.47h9.23Zm.03-1.57H3.3c-.29-.03-.5-.28-.47-.57.02-.25.22-.45.47-.47h9.23c.29.02.51.28.48.57-.02.25-.21.44-.45.48h0Zm.73,5.33c4.62,0,8.37,3.75,8.37,8.37,0,4.62-3.75,8.37-8.37,8.37-4.62,0-8.37-3.75-8.37-8.37s3.74-8.37,8.37-8.37h0ZM2.75,31.49h18.59c.29.03.5.28.47.57-.02.25-.22.45-.47.47H2.75c-.29-.03-.5-.28-.47-.57.02-.25.22-.45.47-.47h0Zm0-3.14h11.01c.29.03.5.28.47.57-.02.25-.22.45-.47.47H2.75c-.29-.03-.5-.28-.47-.57.02-.25.22-.45.47-.47h0Z"/>
        <path id="_パス_6134" data-name="パス 6134" class="cls-3" d="m13.3,10.6c-4.06,0-7.35,3.28-7.35,7.34s3.28,7.35,7.34,7.35,7.35-3.28,7.35-7.34h0c0-4.06-3.29-7.34-7.34-7.35Zm-1.46,7.81l4.54-4.55c.6-.59,1.57-.58,2.16.02.28.28.44.67.44,1.07,0,.4-.15.79-.44,1.08l-6.33,6.32c-.08.07-.18.11-.29.12t-.06.03c-.13,0-.26-.06-.35-.15l-3.47-3.43c-.59-.6-.59-1.56,0-2.16.57-.59,1.51-.61,2.11-.04.02.01.03.03.04.04l1.64,1.66Z"/>
        <path id="_パス_6135" data-name="パス 6135" class="cls-3" d="m20.58,1.74l.06,4.11,4.2-.06-4.26-4.05Z"/>
      </g>
      <path id="_パス_6136" data-name="パス 6136" class="cls-2" d="m12.21,19.49c-.27.28-.58.15-.81-.08l-1.93-1.95c-.08-.11-.21-.17-.35-.15-.27,0-.49.22-.49.49,0,.13.05.26.15.35l3.09,3.09,5.97-5.95c.19-.21.17-.53-.04-.72-.2-.18-.5-.17-.69.01l-4.89,4.9Z"/>
    </g>
  </g>
</svg>