<svg xmlns="http://www.w3.org/2000/svg" width="33.66" height="19.868" viewBox="0 0 33.66 19.868">
  <g id="icon" transform="translate(0.003)">
    <g id="グループ_1096" data-name="グループ 1096" transform="translate(-0.004)">
      <path id="パス_6242" data-name="パス 6242" d="M33.834,12.82a7.96,7.96,0,0,0-.822-.734,6.869,6.869,0,0,1,.763,1.517l.217-.152a1.519,1.519,0,0,1,.164,1.892,2.42,2.42,0,0,1-1.073.753,1.744,1.744,0,0,1-.691.053c.141-.586-.884-2.215-1.228-2.564-.206-.209-.822-.734-.822-.734a6.869,6.869,0,0,1,.763,1.517l.217-.152s1.03,1.475.79,1.877a1.832,1.832,0,0,1-.872-.52l-.079-.1c-.029-.043-.058-.087-.091-.127l-.2-.289c-.376-.536-1.188-1.692-1.814-2.587,1.771-.359,3.067-.616,3.2-.935.31-.77-1.482-2.363-2.458-3.307-3.623-3.5-7.431-6.855-12.348-6.855-4.464,0-7.037,2.275-7.476,3.619-.007.02-.012.039-.018.059A86.658,86.658,0,0,0,1.526,2.384c-.227.15-.319,1.365.7,2.27s4.924,1.565,7.5,1.909a5.136,5.136,0,0,0,3.161,4.512c.166.083.33.162.5.238a2.409,2.409,0,0,0,.857,1.061,4.433,4.433,0,0,1,.747.464,1.87,1.87,0,0,0-.275,1.018c0,.816.432,1.454.983,1.454.406,0,.747-.348.9-.857.646.914,1.625,2.3,2.049,2.9l.2.288a1.825,1.825,0,0,0,.109.155,1.87,1.87,0,0,1-.081,1.994,2.426,2.426,0,0,1-1.071.757c-.729.268-1.3-.223-1.726-.793l.217-.152a6.849,6.849,0,0,1-1.17-1.231,7.935,7.935,0,0,0,.412,1.022c.741,1.2,1.646,2.02,3.006,1.061a1.979,1.979,0,0,0,.864-1.188,2.352,2.352,0,0,0,.034-.929.72.72,0,0,0,.721.179,2.325,2.325,0,0,0,.251.042,1.984,1.984,0,0,0,1.41-.412c1.362-.956.9-2.083.016-3.188a7.96,7.96,0,0,0-.822-.734,6.869,6.869,0,0,1,.763,1.517L22,15.592a1.519,1.519,0,0,1,.164,1.892,2.42,2.42,0,0,1-1.073.753,1.744,1.744,0,0,1-.691.053c.141-.586-.884-2.215-1.228-2.564-.206-.209-.822-.734-.822-.734a6.869,6.869,0,0,1,.763,1.517l.217-.152s1.03,1.475.79,1.877a1.832,1.832,0,0,1-.872-.52l-.079-.1c-.029-.043-.058-.087-.091-.127l-.2-.289-2.2-3.136c.007-.067.011-.135.011-.206a1.635,1.635,0,0,0-.512-1.282l.416-.06a22.479,22.479,0,0,0,10.508.357.8.8,0,0,0,.6.3.923.923,0,0,0,.791-.583l.263-.054c.638.905,1.5,2.128,1.894,2.683l.2.288a1.824,1.824,0,0,0,.109.155,1.87,1.87,0,0,1-.081,1.994,2.426,2.426,0,0,1-1.071.757c-.729.268-1.3-.223-1.726-.793l.217-.152a6.849,6.849,0,0,1-1.17-1.231,7.935,7.935,0,0,0,.412,1.022c.741,1.2,1.646,2.02,3.006,1.061a1.979,1.979,0,0,0,.864-1.188,2.352,2.352,0,0,0,.034-.929.72.72,0,0,0,.721.179,2.325,2.325,0,0,0,.251.042A1.984,1.984,0,0,0,33.824,16c1.362-.956.9-2.083.016-3.188ZM15.7,14.83c-.238,0-.5-.416-.5-.975a1.726,1.726,0,0,1,.02-.254.721.721,0,0,0,.583.084.69.69,0,0,0,.36-.21,1.649,1.649,0,0,1,.043.381c0,.558-.265.975-.5.975Z" transform="translate(-1.197 -1.19)" fill="#fff"/>
      <path id="パス_6243" data-name="パス 6243" d="M16.2,19.868a1.564,1.564,0,0,1-.3-.03A3.053,3.053,0,0,1,14.181,18.3a7.557,7.557,0,0,1-.43-1.059l.319-.162a6.766,6.766,0,0,0,1.135,1.193l.189.15-.259.183c.468.569.929.761,1.4.585a2.209,2.209,0,0,0,.989-.7A1.7,1.7,0,0,0,17.6,16.7a1.619,1.619,0,0,1-.109-.154l-2.055-2.91a1.083,1.083,0,0,1-.943.662c-.652,0-1.164-.719-1.164-1.636a2.151,2.151,0,0,1,.219-.971,6.1,6.1,0,0,0-.6-.351,2.434,2.434,0,0,1-.905-1.084q-.221-.1-.441-.213A5.383,5.383,0,0,1,8.353,5.531C5.96,5.206,1.969,4.54.907,3.6A2.536,2.536,0,0,1,0,1.588a.748.748,0,0,1,.223-.545C.556.828,7.449,3.215,8.634,3.628,9.227,2.123,11.967,0,16.242,0c4.918,0,8.707,3.268,12.473,6.91l.309.3c1.377,1.314,2.492,2.461,2.191,3.208-.151.376-1.051.582-3.058.989l1.859,2.65a1.526,1.526,0,0,1,.095.133l.068.087a1.6,1.6,0,0,0,.585.393,4.741,4.741,0,0,0-.69-1.386l-.264.185-.078-.229a6.682,6.682,0,0,0-.74-1.471l.265-.242c.025.022.625.532.834.745a6.057,6.057,0,0,1,1.29,2.524,1.46,1.46,0,0,0,.448-.058,2.218,2.218,0,0,0,.987-.7c.326-.389.3-.888-.076-1.52l-.259.183-.078-.229A6.682,6.682,0,0,0,31.664,11l.259-.246a7.782,7.782,0,0,1,.853.762h0a3.051,3.051,0,0,1,.866,2.14,1.972,1.972,0,0,1-.92,1.308,2.16,2.16,0,0,1-1.534.444c-.072-.008-.145-.02-.218-.034a.761.761,0,0,1-.522-.03,2.6,2.6,0,0,1-.07.635,2.169,2.169,0,0,1-.943,1.3A1.97,1.97,0,0,1,27.9,17.7a3.053,3.053,0,0,1-1.721-1.538,7.762,7.762,0,0,1-.431-1.059l.319-.162A6.7,6.7,0,0,0,27.2,16.131l.189.15-.259.181c.468.569.929.761,1.4.586a2.209,2.209,0,0,0,.989-.7,1.7,1.7,0,0,0,.072-1.792,1.5,1.5,0,0,1-.108-.154l-2.023-2.865-.064.013a1.064,1.064,0,0,1-.91.6.948.948,0,0,1-.666-.285A22.5,22.5,0,0,1,15.369,11.5l-.039.005a2.022,2.022,0,0,1,.328,1.153c0,.053,0,.105-.007.155l2.366,3.372a1.525,1.525,0,0,1,.095.133l.068.088a1.6,1.6,0,0,0,.585.393,4.707,4.707,0,0,0-.69-1.386l-.264.185-.078-.229a6.682,6.682,0,0,0-.74-1.471l.265-.242c.025.021.625.532.834.745a6.057,6.057,0,0,1,1.29,2.524,1.586,1.586,0,0,0,.448-.058,2.218,2.218,0,0,0,.987-.7c.326-.389.3-.887-.076-1.52l-.259.183-.078-.229a6.682,6.682,0,0,0-.74-1.471l.259-.246a7.573,7.573,0,0,1,.851.763,3.051,3.051,0,0,1,.866,2.14,1.972,1.972,0,0,1-.92,1.308,2.162,2.162,0,0,1-1.534.444c-.072-.008-.145-.02-.217-.034a.773.773,0,0,1-.523-.03,2.6,2.6,0,0,1-.07.635,2.167,2.167,0,0,1-.943,1.3,2.158,2.158,0,0,1-1.232.449Zm-1.713-1.751c.075.122.15.235.223.34L14.8,18.4C14.714,18.327,14.609,18.23,14.492,18.117Zm3.861-1.107a.648.648,0,0,0,.414.179,2.064,2.064,0,0,1-.732-.415,1.89,1.89,0,0,1,.106.36l.21-.123Zm8.138-1.031c.075.122.15.235.223.34l.081-.058c-.083-.072-.188-.168-.3-.282Zm3.86-1.109a.671.671,0,0,0,.414.179,2.064,2.064,0,0,1-.732-.415,1.89,1.89,0,0,1,.106.36l.21-.123Zm-12.522-.215c.068.148.122.28.163.382l.092-.064a2.652,2.652,0,0,0-.248-.31l-.007-.007Zm2.671-.765c.068.148.122.28.164.382l.081-.058c-.074-.105-.156-.213-.244-.324ZM.408,1.375a1.024,1.024,0,0,0-.049.409,2.226,2.226,0,0,0,.786,1.545c.738.656,3.438,1.335,7.405,1.864l.154.021,0,.155a5.007,5.007,0,0,0,3.061,4.353c.164.081.327.16.491.236l.056.026.028.056a2.211,2.211,0,0,0,.779.981,4.657,4.657,0,0,1,.779.486l.121.1-.088.133a1.7,1.7,0,0,0-.246.918c0,.7.36,1.274.8,1.274.309,0,.594-.285.725-.728l.079-.265-.017-.025.007-.066c.005-.062.011-.125.011-.189a1.468,1.468,0,0,0-.444-1.142l-.328-.26.87-.126.037.011a22.151,22.151,0,0,0,10.425.353l.1-.02.068.078a.637.637,0,0,0,.468.239.748.748,0,0,0,.629-.483l.039-.079.465-.095.012.017.271-.075a10.387,10.387,0,0,0,2.972-.808c.234-.579-1.231-1.977-2.106-2.811l-.31-.3C24.753,3.581,21.025.361,16.242.361h0c-4.612,0-6.947,2.4-7.3,3.494l-.056.176-.193,0C4.829,2.672.99,1.462.408,1.375ZM29.826,12.514c.068.148.122.28.163.382l.092-.064a2.652,2.652,0,0,0-.248-.31l-.007-.007Zm2.671-.766c.068.148.123.281.164.384l.081-.058c-.074-.105-.156-.214-.246-.326Zm-18,2.072c-.37,0-.683-.529-.683-1.156a1.754,1.754,0,0,1,.022-.281l.043-.284.236.163a.547.547,0,0,0,.443.056.5.5,0,0,0,.265-.158l.229-.246.079.327a1.785,1.785,0,0,1,.049.423c0,.627-.313,1.156-.683,1.156Zm-.323-1.146c0,.481.227.784.323.784s.322-.273.322-.795v-.056a.883.883,0,0,1-.183.063,1.028,1.028,0,0,1-.461,0Z" transform="translate(0.004)" fill="#fff"/>
    </g>
  </g>
</svg>
