<svg xmlns="http://www.w3.org/2000/svg" width="41.887" height="41.887" viewBox="0 0 41.887 41.887">
  <g id="グループ_1074" data-name="グループ 1074" transform="translate(4662.236 5726.236)">
    <circle id="楕円形_79" data-name="楕円形 79" cx="17.427" cy="17.427" r="17.427" transform="translate(-4658.873 -5722.873)" fill="#fff"/>
    <g id="グループ_1066" data-name="グループ 1066" transform="translate(-4649.621 -5720.75)">
      <path id="パス_6186" data-name="パス 6186" d="M260.759,252.692Zm0,0Z" transform="translate(-260.759 -252.692)" fill="#fff"/>
    </g>
    <g id="Layer_2" data-name="Layer 2" transform="translate(-4662.236 -5726.236)">
      <g id="Layer_1_copy_6" data-name="Layer 1 copy 6">
        <g id="_17" data-name="17">
          <path id="パス_6220" data-name="パス 6220" d="M20.943,0A20.943,20.943,0,1,0,41.887,20.943,20.944,20.944,0,0,0,20.943,0Zm9.767,20.56H29.476v9.383A1.481,1.481,0,0,1,28,31.423H24.8a1.118,1.118,0,0,1-1.118-1.118V26.533a2.744,2.744,0,1,0-5.488,0V30.3a1.118,1.118,0,0,1-1.118,1.118H13.891a1.481,1.481,0,0,1-1.481-1.478V20.56H11.176a1.514,1.514,0,0,1-.92-2.715l8.81-6.743a3.091,3.091,0,0,1,3.755,0l8.81,6.743a1.514,1.514,0,0,1-.92,2.715Z"/>
        </g>
      </g>
    </g>
  </g>
</svg>
