<?xml version="1.0" encoding="UTF-8"?>
<svg id="_レイヤー_2" data-name="レイヤー 2" xmlns="http://www.w3.org/2000/svg" width="35.11" height="33.52" viewBox="0 0 35.11 33.52">
  <defs>
    <style>
      .cls-1 {
        fill: #004fac;
      }

      .cls-2 {
        fill: #fefefe;
      }

      .cls-3 {
        fill: #8dd1ff;
      }

      .cls-4 {
        fill: #3e96ed;
      }
    </style>
  </defs>
  <g id="_レイヤー_2-2" data-name=" レイヤー 2">
    <g id="_レイヤー_1-2" data-name=" レイヤー 1-2">
      <g id="_グループ_1065" data-name=" グループ 1065">
        <path id="_パス_6176" data-name=" パス 6176" class="cls-4" d="m17.23,31.13c.07,1.26-.9,2.33-2.16,2.39H2.27c-1.19,0-2.18-.92-2.25-2.1C0,31.33,0,31.22.02,31.13l.24-4.21c.26-4.63,4.22-8.17,8.86-7.91,1.06.06,2.11.32,3.07.78,0,0,.03,0,.03.02,2.79,1.32,4.64,4.05,4.8,7.12l.24,4.21h-.02Z"/>
        <path id="_パス_6177" data-name=" パス 6177" class="cls-4" d="m35.1,2.52v8.38c0,1.39-1.13,2.51-2.52,2.52h-4.1c-.4,0-.79.14-1.09.4l-3.78,3.24c-.7.61-1.76.52-2.37-.18-.18-.21-.3-.45-.36-.72-.03-.12-.04-.25-.04-.37v-1.53c0-.46-.38-.84-.84-.84h-1.67c-.96,0-1.83-.55-2.24-1.4-.02-.03-.03-.06-.04-.09-.15-.32-.23-.67-.23-1.03V2.52c0-1.39,1.13-2.51,2.52-2.52h14.25c.36,0,.71.08,1.03.23.9.41,1.48,1.3,1.49,2.29h0Z"/>
        <path id="_パス_6178" data-name=" パス 6178" class="cls-2" d="m12.2,19.69c-.39,1.84-1.49,3.44-3.07,4.46-.3.2-.7.2-1,0-1.58-1.01-2.69-2.62-3.07-4.46,2.29-.95,4.86-.95,7.16,0h0Z"/>
        <circle id="_楕円形_76" data-name=" 楕円形 76" class="cls-2" cx="21.27" cy="6.71" r="1.26"/>
        <circle id="_楕円形_77" data-name=" 楕円形 77" class="cls-2" cx="25.46" cy="6.71" r="1.26"/>
        <circle id="_楕円形_78" data-name=" 楕円形 78" class="cls-2" cx="29.65" cy="6.71" r="1.26"/>
        <path id="_パス_6179" data-name=" パス 6179" class="cls-3" d="m15.17,14.1c0,3.62-2.93,6.56-6.56,6.56s-6.56-2.93-6.56-6.56,2.93-6.56,6.56-6.56h0c1.43,0,2.82.47,3.95,1.34,1.64,1.23,2.59,3.16,2.59,5.21h0Z"/>
        <g id="_グループ_1064" data-name=" グループ 1064">
          <path id="_パス_6180" data-name=" パス 6180" class="cls-1" d="m14.97,33.52H2.27c-1.26,0-2.27-1.01-2.27-2.27v-.12l.24-4.22c.26-4.63,4.22-8.17,8.85-7.92,4.27.24,7.68,3.64,7.92,7.92l.24,4.22c.07,1.25-.89,2.32-2.14,2.39h-.13Zm-6.36-12.87c-3.57,0-6.51,2.79-6.71,6.35l-.23,4.22c-.02.32.23.61.56.62h12.73c.33,0,.59-.26.59-.6v-.03l-.24-4.22c-.2-3.56-3.14-6.34-6.7-6.35h0Z"/>
          <path id="_パス_6181" data-name=" パス 6181" class="cls-1" d="m8.62,20.65c-3.62,0-6.56-2.93-6.56-6.56s2.93-6.56,6.56-6.56,6.56,2.93,6.56,6.56c0,1.83-.76,3.57-2.09,4.81-.31.34-.84.37-1.18.06s-.37-.84-.06-1.18c.03-.03.07-.07.09-.09,1.98-1.84,2.09-4.92.26-6.9-1.84-1.98-4.92-2.09-6.9-.26-1.98,1.84-2.09,4.92-.26,6.9.93.99,2.21,1.56,3.58,1.56.46-.02.85.34.87.8s-.34.85-.8.87h-.07Z"/>
          <path id="_パス_6182" data-name=" パス 6182" class="cls-1" d="m8.62,26.37c-.18,0-.36-.06-.5-.17-1.84-1.38-2.99-3.48-3.16-5.77,0-.46.35-.85.81-.86.44,0,.8.31.86.74.12,1.58.83,3.06,2,4.13,1.16-1.08,1.87-2.55,2-4.13.04-.45.44-.8.9-.78.46.04.8.44.78.9-.17,2.29-1.32,4.4-3.16,5.77-.14.1-.32.17-.5.17h-.02Z"/>
          <path id="_パス_6183" data-name=" パス 6183" class="cls-1" d="m8.62,33.52c-.46,0-.84-.38-.84-.84h0v-7.14c.02-.46.41-.82.87-.8.44.02.79.37.8.8v7.14c0,.46-.38.83-.83.83h0Z"/>
          <path id="_パス_6184" data-name=" パス 6184" class="cls-1" d="m22.54,17.46c-.25,0-.48-.06-.71-.16-.6-.26-.98-.87-.97-1.52v-1.53c0-.46-.38-.84-.84-.84h-1.67c-1.39,0-2.52-1.13-2.52-2.52V2.52c0-1.39,1.14-2.52,2.52-2.52h14.25c1.39,0,2.52,1.13,2.52,2.52v8.38c0,1.39-1.13,2.52-2.52,2.52h-4.1c-.4,0-.79.14-1.09.41l-3.78,3.24c-.3.26-.68.41-1.09.41h0ZM18.34,1.67c-.46,0-.84.38-.84.84h0v8.38c0,.46.38.84.84.84h1.67c1.39,0,2.52,1.13,2.52,2.52v1.53l3.77-3.24c.61-.52,1.38-.8,2.18-.8h4.1c.46,0,.84-.38.84-.84h0V2.52c0-.46-.38-.84-.84-.84h-14.25,0Z"/>
        </g>
      </g>
    </g>
  </g>
</svg>