<svg xmlns="http://www.w3.org/2000/svg" width="33.363" height="31" viewBox="0 0 33.363 31">
  <g id="team_2415163" transform="translate(-1 -2.7)">
    <path id="パス_6102" data-name="パス 6102" d="M22.525,2.7A6.348,6.348,0,0,0,16.2,9.025c0,3.545,2.919,7.924,6.325,7.924S28.85,12.57,28.85,9.025A6.348,6.348,0,0,0,22.525,2.7Zm0,12.859c-2.641,0-4.935-3.684-4.935-6.534a4.935,4.935,0,1,1,9.87,0C27.46,11.875,25.1,15.559,22.525,15.559Z" transform="translate(-4.635)" fill="#fff"/>
    <path id="パス_6103" data-name="パス 6103" d="M37.47,23.983c2.294,0,4.17-2.85,4.17-5.213a4.17,4.17,0,1,0-8.341,0C33.23,21.2,35.106,23.983,37.47,23.983Zm0-7.924a2.788,2.788,0,0,1,2.78,2.78c0,1.668-1.39,3.823-2.78,3.823s-2.78-2.155-2.78-3.823A2.7,2.7,0,0,1,37.47,16.06Z" transform="translate(-9.848 -3.629)" fill="#fff"/>
    <path id="パス_6104" data-name="パス 6104" d="M34.363,34.171a5.846,5.846,0,0,0-5.839-5.7H26.44c-.278,0-.626.07-.9.07A8.409,8.409,0,0,0,19.419,25.9H16.083A8.807,8.807,0,0,0,9.9,28.541a17.966,17.966,0,0,0-3.058-.07A5.878,5.878,0,0,0,1,34.1v2.641a.657.657,0,0,0,.7.7H7.047v2.641a.657.657,0,0,0,.7.7H27.691a.657.657,0,0,0,.7-.7V37.438h5.283a.657.657,0,0,0,.7-.7ZM2.39,36.048V34.171a4.453,4.453,0,0,1,4.448-4.309H8.854a10.19,10.19,0,0,0-1.807,5.561v.626ZM27,39.384H8.437V36.743h0V35.422c.139-4.379,3.336-8.132,7.576-8.132H19.35c4.1,0,7.507,3.753,7.576,8.271v3.823Zm5.978-3.336H28.386v-.487a9.928,9.928,0,0,0-1.807-5.7h1.946a4.465,4.465,0,0,1,4.448,4.379Z" transform="translate(0 -7.074)" fill="#fff"/>
    <path id="パス_6105" data-name="パス 6105" d="M9.17,23.983c2.294,0,4.17-2.85,4.17-5.213A4.17,4.17,0,1,0,5,18.77C5,21.2,6.877,23.983,9.17,23.983Zm0-7.924a2.788,2.788,0,0,1,2.78,2.78c0,1.668-1.39,3.823-2.78,3.823S6.39,20.508,6.39,18.84A2.788,2.788,0,0,1,9.17,16.06Z" transform="translate(-1.22 -3.629)" fill="#fff"/>
  </g>
</svg>
