<svg xmlns="http://www.w3.org/2000/svg" width="28" height="28" viewBox="0 0 28 28">
  <g id="user_10104042" transform="translate(-2 -2)">
    <g id="グループ_1093" data-name="グループ 1093">
      <path id="パス_6233" data-name="パス 6233" d="M16,2A14,14,0,1,0,30,16,14.016,14.016,0,0,0,16,2ZM9.514,26.081a6.5,6.5,0,0,1,12.97,0,11.919,11.919,0,0,1-12.97,0Zm14.772-1.422a8.5,8.5,0,0,0-16.573,0,12,12,0,1,1,16.573,0Z" fill="#fff"/>
      <path id="パス_6234" data-name="パス 6234" d="M16,7.5a4.748,4.748,0,1,0,4.748,4.748A4.753,4.753,0,0,0,16,7.5ZM16,15a2.748,2.748,0,1,1,2.748-2.749A2.751,2.751,0,0,1,16,15Z" fill="#fff"/>
    </g>
  </g>
</svg>
