<?xml version="1.0" encoding="UTF-8"?>
<svg id="_レイヤー_2" data-name="レイヤー 2" xmlns="http://www.w3.org/2000/svg" width="33.5" height="35.41" viewBox="0 0 33.5 35.41">
  <defs>
    <style>
      .cls-1 {
        fill: #59aae7;
      }

      .cls-1, .cls-2 {
        fill-rule: evenodd;
      }

      .cls-2 {
        fill: #006ea7;
      }
    </style>
  </defs>
  <g id="_レイヤー_1-2" data-name="レイヤー 1">
    <g id="Layer_1">
      <path id="_パス_6152" data-name="パス 6152" class="cls-2" d="m10.1,29.41c-.3,0-.5-.2-.5-.5h0v-7.9c0-.3.2-.5.5-.5s.5.2.5.5v7.9c-.1.3-.3.5-.5.5Zm21.1,6H2.2c-1.2,0-2.2-1-2.2-2.2s1-2.2,2.2-2.2h.2v-11.2c0-1,.8-1.8,1.8-1.8h6.5c.3,0,.5.1.8.2v-7.5c0-1,.8-1.8,1.8-1.8h6.7c1,0,1.8.8,1.8,1.8h0v3.8c.3-.1.5-.2.8-.2h6.7c1,0,1.8.8,1.8,1.8h0v14.9h.2c1.2,0,2.2,1,2.2,2.2-.1,1.2-1.1,2.2-2.3,2.2h0Zm-29.1-3.5c-.7,0-1.2.5-1.2,1.2h0c0,.7.6,1.2,1.2,1.2h29c.7,0,1.2-.6,1.2-1.2h0c0-.7-.5-1.2-1.2-1.2H2.1Zm1.2-.9h8.2v-11.2c0-.4-.4-.8-.8-.8h-6.7c-.4,0-.8.4-.8.8h0l.1,11.2Zm9.2,0h8.3V10.71c0-.4-.4-.8-.8-.8h-6.7c-.4,0-.8.4-.8.8h0v20.3Zm9.2,0h8.3v-14.9c0-.4-.3-.8-.8-.8h-6.7c-.4,0-.8.4-.8.8v14.9Zm-7-22.8c-.3,0-.5-.1-.7-.2-.3-.2-.5-.6-.5-1.1l.1-1.5-1-1.2c-.3-.3-.4-.8-.2-1.2.1-.4.4-.7.9-.8l1.5-.4.8-1.3c.3-.5,1.1-.7,1.6-.3.2.1.3.2.4.4l.8,1.3,1.5.4c.5,0,.8.3.9.7s0,.8-.2,1.2l-1,1.2.1,1.5c0,.4-.1.8-.5,1.1-.3.2-.8.3-1.2.1l-1.4-.6-1.4.6c-.1.1-.3.1-.5.1h0Zm1.9-7.2c-.1,0-.2,0-.2.1l-.9,1.5c-.1.1-.2.2-.3.2l-1.7.4c-.1,0-.2.1-.2.2v.2l1.1,1.3c.1.1.1.2.1.3v1.8c0,.1,0,.2.1.2q.1.1.2,0l1.6-.7h.4l1.6.7h.2c.1,0,.1-.1.1-.2l-.1-1.7c0-.1,0-.2.1-.3l1.1-1.3q.1-.1,0-.2c0-.1-.1-.2-.2-.2l-1.7-.4c-.1,0-.2-.1-.3-.2l-.9-1.5c.1-.2,0-.2-.1-.2h0Zm6.6,28.7c-.3,0-.5-.2-.5-.5h0v-12.1c0-.3.2-.5.5-.5s.5.2.5.5h0v12.1c0,.2-.2.5-.5.5h0Zm5.3,0c-.3,0-.5-.2-.5-.5h0v-12.1c0-.3.2-.5.5-.5s.5.2.5.5v12.1c0,.2-.2.5-.5.5h0Zm-14.5-.3c-.3,0-.5-.2-.5-.5h0V11.91c0-.3.2-.5.5-.5h0c.3,0,.5.2.5.5h0v17c0,.3-.2.5-.5.5h0Zm5.3,0c-.3,0-.5-.2-.5-.5h0V11.91c0-.3.2-.5.5-.5s.5.2.5.5v17c0,.3-.2.5-.5.5h0Zm-14.5,0c-.3,0-.5-.2-.5-.5h0v-7.9c0-.3.2-.5.5-.5h0c.3,0,.5.2.5.5v7.9c-.1.3-.3.5-.5.5h0Z"/>
      <g id="_グループ_1060" data-name="グループ 1060">
        <path id="_パス_6153" data-name="パス 6153" class="cls-1" d="m14.44,11.97v17c0,.3-.2.5-.5.5h0c-.3,0-.5-.2-.5-.5V11.97c0-.3.2-.5.5-.5h0c.3,0,.5.2.5.5h0Zm-1.9-1.2v20.2h8.3V10.77c0-.4-.4-.8-.8-.8h-6.7c-.5,0-.8.3-.8.8h0Zm6.3,18.2V11.97c0-.3.2-.5.5-.5s.5.2.5.5v17c0,.3-.2.5-.5.5s-.5-.2-.5-.5h0Z"/>
        <path id="_パス_6154" data-name="パス 6154" class="cls-1" d="m9.54,28.97v-7.9c0-.3.2-.5.5-.5s.5.2.5.5h0v7.9c0,.3-.2.5-.5.5s-.5-.3-.5-.5Zm2,2v-11.1c0-.4-.4-.8-.8-.8h-6.7c-.4,0-.8.4-.8.8h0v11.1h8.3Zm-6.3-9.9v7.9c0,.3-.2.5-.5.5h0c-.3,0-.5-.2-.5-.5h0v-7.9c0-.3.2-.5.5-.5h0c.3,0,.5.2.5.5Z"/>
        <path id="_パス_6155" data-name="パス 6155" class="cls-1" d="m23.74,17.07v12.1c0,.3-.2.5-.5.5s-.5-.2-.5-.5v-12.1c0-.3.2-.5.5-.5.2.1.5.3.5.5Zm-2-.9v14.8h8.3v-14.8c0-.4-.3-.8-.8-.8h-6.7c-.5,0-.8.3-.8.8Zm6.3,13v-12.1c0-.3.2-.5.5-.5s.5.2.5.5v12.1c0,.3-.2.5-.5.5h0c-.3,0-.5-.2-.5-.5h0Z"/>
        <path id="_パス_6156" data-name="パス 6156" class="cls-1" d="m31.14,31.97H2.14c-.7,0-1.2.5-1.2,1.2h0c0,.7.6,1.2,1.2,1.2h29c.7,0,1.2-.6,1.2-1.2h0c0-.7-.5-1.2-1.2-1.2h0Z"/>
        <path id="_パス_6157" data-name="パス 6157" class="cls-1" d="m16.44,6.57h.4l1.6.7h.2c.1,0,.1-.1.1-.2l-.1-1.7c0-.1,0-.2.1-.3l1.1-1.3c.1-.1.1-.2,0-.2,0-.1-.1-.2-.2-.2l-1.6-.6c-.1,0-.2-.1-.3-.2l-.9-1.5c0-.1-.1-.1-.2-.1s-.2,0-.2.1l-.9,1.5c-.1.1-.2.2-.3.2l-1.7.4c-.1.1-.2.1-.2.2v.2l1.1,1.3c.1.1.1.2.1.3l-.1,1.7c0,.1,0,.2.1.2q.1.1.2,0l1.7-.5Z"/>
      </g>
    </g>
  </g>
</svg>