<?xml version="1.0" encoding="UTF-8"?>
<svg id="_レイヤー_2" data-name="レイヤー 2" xmlns="http://www.w3.org/2000/svg" width="33.7" height="35.7" viewBox="0 0 33.7 35.7">
  <defs>
    <style>
      .cls-1 {
        fill: #59aae7;
      }

      .cls-1, .cls-2 {
        fill-rule: evenodd;
      }

      .cls-2 {
        fill: #006ea7;
      }
    </style>
  </defs>
  <g id="_レイヤー_1-2" data-name="レイヤー 1">
    <g id="Layer_1">
      <g id="_グループ_1061" data-name="グループ 1061">
        <path id="_パス_6158" data-name="パス 6158" class="cls-2" d="m17.2,19.5h-1.4v3.1h1.9v-3.1h-.5Zm7.6,13.5H7.8v1.8h17.8v-1.8h-.8Zm-16.6-1v-6.6c0-.3.2-.5.5-.5h4.3v-2c0-.3.2-.5.5-.5h1.3v-3.2c-3-.5-5.6-2.3-7-5h-2c-3.2,0-5.8-2.6-5.8-5.8v-4c0-1,.8-1.9,1.9-1.9h4.8V.2c-.1,0,.1-.2.4-.2h19.4c.3,0,.5.2.5.5v2.3h4.8c1,0,1.9.8,1.9,1.9v4c0,3.2-2.6,5.8-5.8,5.8h-2c-1.5,2.7-4.1,4.5-7.1,5v3.1h1.3c.3,0,.5.2.5.5h0v2h4.2c.3,0,.5.2.5.5h0v6.4c.4,0,1.3-.2,1.3.5v2.7c0,.3-.2.5-.5.5H7.3c-.3,0-.5-.2-.5-.5v-2.7c.1-.6,1-.5,1.4-.5Zm14.5-1.1h-11.9c-.3,0-.5-.2-.5-.5h0v-2.8c0-.3.2-.5.5-.5h11.9c.3,0,.5.2.5.5h0v2.8c0,.3-.2.5-.5.5h0Zm-11.4-1h10.9v-1.9h-10.9v1.9Zm-2.1,2.1h15.1v-6h-15.1v6Zm4.8-7h5.5v-1.5h-5.5v1.5Zm1.4-6.5l1,.1h1.8c4.1-.4,7.4-3.7,7.8-7.9l.1-.9V2.9H7.6v6.9c0,4.4,3.3,8.1,7.8,8.7Zm4.3-3.3c-1-.4-1.9-.8-2.9-1.3l-2.7,1.3c-.2.1-.5,0-.6-.2v-.3l.4-2.9-2.1-2.1c-.2-.2-.2-.5,0-.7.1-.1.2-.1.3-.1l2.9-.5,1.4-2.6c.1-.2.4-.3.7-.2.1,0,.1.1.2.2l1.4,2.6,2.9.5c.3.1.4.3.4.6,0,.1-.1.2-.1.2l-2,2.1.4,2.9c-.1.3-.3.5-.6.5h0Zm-6.6-5.6l1.6,1.7c.1.1.1.2.1.4l-.3,2.3,2.1-1c.1-.1.3-.1.4,0l2.1,1-.3-2.3c0-.1,0-.3.1-.4l1.6-1.7-2.3-.4c-.1,0-.3-.1-.3-.2l-1.1-2-1.1,2c-.1.1-.2.2-.3.2l-2.3.4ZM7.6,1.9h18.4v-1H7.6v1Zm-.2,11.6l-.4-1.2h-1.2c-2.1,0-3.7-1.7-3.7-3.7v-3.3c0-.3.2-.5.5-.5h4.1v-1.1H1.8c-.5,0-.9.4-.9.9v4c0,2.7,2.2,4.9,4.9,4.9h1.6ZM3,5.8v2.8c0,1.5,1.2,2.8,2.8,2.8h1c-.2-1.9-.2-3.7-.2-5.6h-3.6Zm24-2.1v1.1h4.1c.3,0,.5.2.5.5v3.3c0,2.1-1.7,3.7-3.7,3.7h-1.2l-.4,1.2h1.5c2.7,0,4.9-2.2,4.9-4.9v-4c0-.5-.4-.9-.9-.9h0s-4.8,0-4.8,0Zm0,2.1v4.2c0,.5-.1.9-.1,1.4h.9c1.5,0,2.8-1.2,2.8-2.8h0v-2.8h-3.6Z"/>
      </g>
      <g id="_グループ_1062" data-name="グループ 1062">
        <path id="_パス_6159" data-name="パス 6159" class="cls-1" d="m17.18,5.7l1.4,2.6,2.9.5c.3.1.4.3.4.6,0,.1-.1.2-.1.2l-2,2.1.4,2.9c0,.3-.2.5-.5.5h0c-1-.4-1.9-.8-2.9-1.3l-2.7,1.3c-.2.1-.5,0-.6-.2v-.3l.4-2.8-2-2.1c-.2-.2-.2-.5,0-.7.1-.1.2-.1.3-.1l2.9-.5,1.4-2.6c.1-.2.4-.3.7-.2-.1,0,0,0,0,.1Zm-9.6,4.1c0,4.4,3.4,8.2,7.8,8.7l1,.1h1.8c4.1-.4,7.4-3.7,7.8-7.9v-.9s0-6.9,0-6.9H7.58v6.9Z"/>
        <path id="_パス_6160" data-name="パス 6160" class="cls-1" d="m14.68,11.3c.1.1.1.3.1.4l-.3,2.3,2.1-1c.1-.1.3-.1.4,0l2.1,1-.3-2.3c0-.1,0-.3.1-.4l1.6-1.7-2.3-.4c-.1,0-.3-.1-.3-.2l-1.1-2-1.1,2c-.1.1-.2.2-.3.2l-2.3.4,1.6,1.7Z"/>
        <path id="_パス_6161" data-name="パス 6161" class="cls-1" d="m26.58,12.3l-.4,1.2h1.5c2.7,0,4.9-2.2,4.9-4.9v-4c0-.5-.4-.9-.9-.9h-4.8v1.1h4.1c.3,0,.5.2.5.5v3.3c0,2.1-1.7,3.7-3.7,3.7h-1.2Z"/>
        <path id="_パス_6162" data-name="パス 6162" class="cls-1" d="m.88,8.6c0,2.7,2.2,4.9,4.9,4.9h1.6l-.4-1.2h-1.2c-2.1,0-3.7-1.7-3.7-3.7v-3.3c0-.2.2-.5.5-.5h4.1v-1.1H1.88c-.5,0-.9.4-.9.9v4h-.1Z"/>
        <path id="_パス_6163" data-name="パス 6163" class="cls-1" d="m15.78,19.5v3.1h1.9v-3.1h-1.9Z"/>
        <path id="_パス_6164" data-name="パス 6164" class="cls-1" d="m13.98,23.5v1.5h5.5v-1.5h-5.5Z"/>
        <path id="_パス_6165" data-name="パス 6165" class="cls-1" d="m10.78,27.1h11.9c.3,0,.5.2.5.5h0v2.8c0,.3-.2.5-.5.5h-11.9c-.3,0-.5-.2-.5-.5h0v-2.8c.1-.3.3-.5.5-.5h0Zm-1.6-1.1v6.1h15.1v-6.1h-15.1Z"/>
        <path id="_パス_6166" data-name="パス 6166" class="cls-1" d="m7.58,1.9h18.4V.9H7.58v1Z"/>
        <path id="_パス_6167" data-name="パス 6167" class="cls-1" d="m11.28,28.1v1.9h10.9v-1.9h-10.9Z"/>
        <path id="_パス_6168" data-name="パス 6168" class="cls-1" d="m7.78,33v1.8h17.8v-1.8H7.78Z"/>
      </g>
    </g>
  </g>
</svg>