<svg xmlns="http://www.w3.org/2000/svg" width="36.896" height="36.896" viewBox="0 0 36.896 36.896">
  <g id="Help" transform="translate(-2 -2)">
    <path id="パス_6169" data-name="パス 6169" d="M20.833,3A17.833,17.833,0,1,0,38.666,20.833,17.833,17.833,0,0,0,20.833,3Zm0,31.976A14.143,14.143,0,1,1,34.976,20.833,14.143,14.143,0,0,1,20.833,34.976Z" transform="translate(-0.385 -0.385)" fill="#9bc9ff"/>
    <path id="パス_6170" data-name="パス 6170" d="M28.029,15A6.764,6.764,0,0,0,22.057,25.4a1.229,1.229,0,0,0,2.052-1.353,4.3,4.3,0,1,1,4.882,1.845l-.179.052a3.152,3.152,0,0,0-2.278,3.032v2.016a1.23,1.23,0,0,0,2.46,0V29.37a1.243,1.243,0,0,1,.875-1.175A6.764,6.764,0,0,0,28.029,15Z" transform="translate(-7.316 -5.006)" fill="#9bc9ff"/>
    <circle id="楕円形_75" data-name="楕円形 75" cx="1.265" cy="1.265" r="1.265" transform="translate(19.493 29.616)" fill="#9bc9ff"/>
    <g id="グループ_1063" data-name="グループ 1063" transform="translate(2 2)">
      <path id="パス_6171" data-name="パス 6171" d="M20.448,38.9A18.448,18.448,0,1,1,38.9,20.448,18.448,18.448,0,0,1,20.448,38.9Zm0-35.666A17.218,17.218,0,1,0,37.666,20.448,17.218,17.218,0,0,0,20.448,3.23Z" transform="translate(-2 -2)" fill="#1e81ce"/>
      <path id="パス_6172" data-name="パス 6172" d="M22.758,37.516A14.758,14.758,0,1,1,37.516,22.758,14.758,14.758,0,0,1,22.758,37.516Zm0-28.287A13.528,13.528,0,1,0,36.287,22.758,13.528,13.528,0,0,0,22.758,9.23Z" transform="translate(-4.31 -4.31)" fill="#1e81ce"/>
      <path id="パス_6173" data-name="パス 6173" d="M27.38,32.448A1.845,1.845,0,0,1,25.535,30.6V28.587a3.784,3.784,0,0,1,2.727-3.621l.178-.052a3.706,3.706,0,0,0,2.568-4.237,3.692,3.692,0,1,0-6.757,2.656A1.845,1.845,0,0,1,24,25.628l-.018.018a1.841,1.841,0,0,1-1.5.518,1.793,1.793,0,0,1-1.325-.817,7.379,7.379,0,0,1,6.51-11.34,7.457,7.457,0,0,1,7.067,6.776,7.371,7.371,0,0,1-5.06,7.612.632.632,0,0,0-.451.59V30.6a1.845,1.845,0,0,1-1.845,1.845Zm.009-15.988a5.1,5.1,0,0,1,.989.1,4.919,4.919,0,0,1,.407,9.536l-.184.053a2.55,2.55,0,0,0-1.836,2.441V30.6a.615.615,0,1,0,1.23,0V28.985a1.859,1.859,0,0,1,1.3-1.759,6.145,6.145,0,0,0,4.216-6.347,6.15,6.15,0,1,0-11.318,3.806.567.567,0,0,0,.422.256.624.624,0,0,0,.516-.181l.012-.012a.622.622,0,0,0,.065-.763,4.919,4.919,0,0,1,4.182-7.525Z" transform="translate(-8.932 -6.621)" fill="#1e81ce"/>
      <path id="パス_6174" data-name="パス 6174" d="M30.845,49.69a1.845,1.845,0,1,1,1.845-1.845A1.845,1.845,0,0,1,30.845,49.69Zm0-2.46a.615.615,0,1,0,.615.615A.615.615,0,0,0,30.845,47.23Z" transform="translate(-12.397 -18.943)" fill="#1e81ce"/>
    </g>
  </g>
</svg>
