<svg xmlns="http://www.w3.org/2000/svg" width="30.879" height="30.878" viewBox="0 0 30.879 30.878">
  <g id="グループ_1073" data-name="グループ 1073" opacity="0.403">
    <g id="グループ_1071" data-name="グループ 1071" transform="translate(0.452 6.447)">
      <path id="パス_6193" data-name="パス 6193" d="M10.159,374.967H8.5a1,1,0,0,1-1-1v-1a1,1,0,0,1,1-1h1.66Z" transform="translate(-7.5 -355.984)" fill="#f8f6f6"/>
      <path id="パス_6194" data-name="パス 6194" d="M67.482,429.536v4.021a.5.5,0,0,1-.5.5h-1a.5.5,0,0,1-.5-.5v-4.021Z" transform="translate(-61.987 -410.078)" fill="#f8f6f6"/>
      <path id="パス_6195" data-name="パス 6195" d="M70.856,429.536v4.021a.5.5,0,0,1-.306.461.5.5,0,0,0,.194.039h1a.5.5,0,0,0,.5-.5v-4.022Z" transform="translate(-66.747 -410.078)" fill="#e2e2e2"/>
      <path id="パス_6196" data-name="パス 6196" d="M17.633,372.047v2.841a1,1,0,0,0,.388.078h1.66v-3h-1.66A1,1,0,0,0,17.633,372.047Z" transform="translate(-17.022 -355.983)" fill="#e2e2e2"/>
      <path id="パス_6197" data-name="パス 6197" d="M114.873,313.7l3.73,2.8a1,1,0,0,0,.6.2h.666a1,1,0,0,0,1-1V306.7a1,1,0,0,0-1-1H119.2a1,1,0,0,0-.6.2l-3.73,2.8-.552,2.5Z" transform="translate(-107.879 -293.714)" fill="#f8f6f6"/>
      <path id="パス_6198" data-name="パス 6198" d="M190.306,305.7h-.666a1,1,0,0,0-.36.068,1,1,0,0,1,.639.931v8.992a1,1,0,0,1-.639.931,1,1,0,0,0,.36.068h.666a1,1,0,0,0,1-1V306.7A1,1,0,0,0,190.306,305.7Z" transform="translate(-178.316 -293.714)" fill="#e2e2e2"/>
      <path id="パス_6199" data-name="パス 6199" d="M182.233,306.042v10.312l.186.139a1,1,0,0,0,.6.2h.119V305.7h-.119a1,1,0,0,0-.6.2Z" transform="translate(-171.695 -293.714)" fill="#cecece"/>
      <path id="パス_6200" data-name="パス 6200" d="M129.88,106.906H107.9a1,1,0,0,0-1,1V115.9a1,1,0,0,0,1,1h7.493a.5.5,0,0,1,.5.5v1.292a.5.5,0,0,0,.853.353l2-2a.5.5,0,0,1,.353-.146H129.88a1,1,0,0,0,1-1v-7.993a1,1,0,0,0-1-1Z" transform="translate(-100.905 -106.906)" fill="#8ac9fe"/>
      <g id="グループ_1070" data-name="グループ 1070" transform="translate(14.987)">
        <path id="パス_6201" data-name="パス 6201" d="M257.464,272.716,256,274.18v.181a.5.5,0,0,0,.853.353l2-2a.5.5,0,0,1,.353-.146h-1.387A.5.5,0,0,0,257.464,272.716Z" transform="translate(-256 -262.579)" fill="#60b7ff"/>
        <path id="パス_6202" data-name="パス 6202" d="M466.32,106.906h-1.387a1,1,0,0,1,1,1V115.9a1,1,0,0,1-1,1h1.387a1,1,0,0,0,1-1v-7.993a1,1,0,0,0-1-1Z" transform="translate(-452.332 -106.906)" fill="#60b7ff"/>
      </g>
      <path id="パス_6203" data-name="パス 6203" d="M45.629,360.4H41.115a.482.482,0,0,1-.482-.482v-4.031a.482.482,0,0,1,.482-.482h4.513v5Z" transform="translate(-38.635 -340.415)" fill="#8ac9fe"/>
    </g>
    <g id="グループ_1072" data-name="グループ 1072" transform="translate(0)">
      <path id="パス_6204" data-name="パス 6204" d="M339.631,4.9a.452.452,0,0,0,.452-.452V1.911l1.873,2.712a.506.506,0,0,0,.571.212.526.526,0,0,0,.357-.524L342.847.448A.452.452,0,0,0,342.395,0h0a.452.452,0,0,0-.448.457l.025,2.59L340,.2a.452.452,0,0,0-.824.257V4.449a.452.452,0,0,0,.452.452Z" transform="translate(-318.723 0)"/>
      <path id="パス_6205" data-name="パス 6205" d="M203.428,4.864a.452.452,0,0,0,.525-.365l.431-2.388.71,2.4.005.016a.542.542,0,0,0,.514.37h0a.542.542,0,0,0,.513-.375l0-.016.685-2.4.458,2.4a.452.452,0,1,0,.889-.17l-.745-3.9a.543.543,0,0,0-1.048-.059l0,.016-.761,2.668L204.819.387l-.005-.016a.543.543,0,0,0-1.048.075l-.7,3.892a.452.452,0,0,0,.365.525Z" transform="translate(-190.809 -0.001)"/>
      <path id="パス_6206" data-name="パス 6206" d="M306.5,4.9a.452.452,0,0,0,.452-.452v-4a.452.452,0,1,0-.9,0v4A.452.452,0,0,0,306.5,4.9Z" transform="translate(-287.588)"/>
      <path id="パス_6207" data-name="パス 6207" d="M421.2,4.9a2.225,2.225,0,0,0,2.177-2.451A.452.452,0,0,0,422.923,2h-1.2a.452.452,0,0,0,0,.9h.7A1.226,1.226,0,0,1,421.2,4a1.546,1.546,0,1,1,.864-2.828.452.452,0,1,0,.506-.75A2.451,2.451,0,1,0,421.2,4.9Z" transform="translate(-393.492 0)"/>
      <path id="パス_6208" data-name="パス 6208" d="M18.968,4.9a2.024,2.024,0,0,0,1.605-.726.452.452,0,1,0-.693-.581,1.122,1.122,0,0,1-.912.4,1.546,1.546,0,1,1,.864-2.828.452.452,0,0,0,.506-.75A2.451,2.451,0,1,0,18.968,4.9Z" transform="translate(-15.521 0)"/>
      <path id="パス_6209" data-name="パス 6209" d="M106.109,4.9a2.451,2.451,0,1,0-2.451-2.451A2.453,2.453,0,0,0,106.109,4.9Zm0-4a1.546,1.546,0,1,1-1.546,1.546A1.548,1.548,0,0,1,106.109.9Z" transform="translate(-97.406)"/>
      <path id="パス_6210" data-name="パス 6210" d="M412.783,149.139a.452.452,0,0,0-.318.432v3.989a.452.452,0,1,0,.9,0v-2.538l1.873,2.712a.506.506,0,0,0,.571.211.526.526,0,0,0,.357-.524l-.037-3.862a.452.452,0,0,0-.452-.448h0a.452.452,0,0,0-.448.457l.025,2.59-1.964-2.844A.452.452,0,0,0,412.783,149.139Z" transform="translate(-387.589 -140.118)"/>
      <path id="パス_6211" data-name="パス 6211" d="M139.344,153.108a1.439,1.439,0,0,1-1.058-.444.452.452,0,1,0-.67.607,2.357,2.357,0,0,0,1.728.741,1.6,1.6,0,0,0,1.635-1.239,1.46,1.46,0,0,0-1.132-1.6c-.5-.184-.962-.384-1.1-.443a.323.323,0,0,1-.12-.308.447.447,0,0,1,.351-.359,1.38,1.38,0,0,1,1.143.263.452.452,0,0,0,.58-.694,2.279,2.279,0,0,0-1.984-.435,1.359,1.359,0,0,0-.986,1.1,1.223,1.223,0,0,0,.546,1.211.448.448,0,0,0,.063.034c.023.01.572.255,1.19.483.186.069.613.265.554.6A.721.721,0,0,1,139.344,153.108Z" transform="translate(-129.207 -140.119)"/>
      <path id="パス_6212" data-name="パス 6212" d="M218.567,151.548A2.451,2.451,0,1,0,216.117,154,2.453,2.453,0,0,0,218.567,151.548Zm-4,0a1.546,1.546,0,1,1,1.546,1.546A1.548,1.548,0,0,1,214.571,151.548Z" transform="translate(-200.78 -140.106)"/>
      <path id="パス_6213" data-name="パス 6213" d="M317.967,151.548A2.451,2.451,0,1,0,315.517,154,2.453,2.453,0,0,0,317.967,151.548Zm-4,0a1.546,1.546,0,1,1,1.546,1.546A1.548,1.548,0,0,1,313.971,151.548Z" transform="translate(-294.185 -140.106)"/>
      <path id="パス_6214" data-name="パス 6214" d="M66.719,390.223h1a.452.452,0,1,0,0-.9h-1a.452.452,0,1,0,0,.9Z" transform="translate(-62.27 -365.838)"/>
      <path id="パス_6215" data-name="パス 6215" d="M12.442,298.2h-.666a1.46,1.46,0,0,0-.871.29L7.3,301.2H2.933a.936.936,0,0,0-.935.935v.064H1.451A1.453,1.453,0,0,0,0,303.651v1A1.453,1.453,0,0,0,1.451,306.1H2v.064a.936.936,0,0,0,.935.935H3.5v.189a.452.452,0,1,0,.9,0V307.1H5.5v3.044a.047.047,0,0,1-.047.047h-1a.047.047,0,0,1-.047-.047V309.4a.452.452,0,1,0-.9,0v.745a.953.953,0,0,0,.952.952h1a.953.953,0,0,0,.952-.952V307.1h.9l3.609,2.707a1.461,1.461,0,0,0,.871.29h.666a1.453,1.453,0,0,0,1.451-1.451v-8.992A1.453,1.453,0,0,0,12.442,298.2ZM1.451,305.2A.547.547,0,0,1,.9,304.65v-1a.547.547,0,0,1,.547-.547H2V305.2H1.451Zm5.543,1H2.933a.03.03,0,0,1-.03-.03v-4.031a.03.03,0,0,1,.03-.03H6.994Zm.9.226v-4.543l3.092-2.319v9.181Zm5.09,2.224a.547.547,0,0,1-.547.547H11.9V299.108h.547a.547.547,0,0,1,.547.547Z" transform="translate(0 -280.218)"/>
      <path id="パス_6216" data-name="パス 6216" d="M122.832,99.406H100.851a1.453,1.453,0,0,0-1.451,1.451v7.993a1.453,1.453,0,0,0,1.451,1.451H102.6a.452.452,0,0,0,0-.9h-1.746a.547.547,0,0,1-.547-.547v-7.993a.547.547,0,0,1,.547-.547h21.981a.547.547,0,0,1,.547.547v7.993a.547.547,0,0,1-.547.547H112.049a.946.946,0,0,0-.673.279l-2,2a.047.047,0,0,1-.081-.033v-1.292a.953.953,0,0,0-.952-.952h-3.636a.452.452,0,0,0,0,.9h3.636a.047.047,0,0,1,.047.047v1.292a.952.952,0,0,0,1.625.673l2-2a.048.048,0,0,1,.033-.014h10.784a1.453,1.453,0,0,0,1.451-1.451v-7.993a1.453,1.453,0,0,0-1.452-1.451Z" transform="translate(-93.405 -93.411)"/>
      <path id="パス_6217" data-name="パス 6217" d="M397.748,397.11a.452.452,0,1,0-.64.64l1.413,1.413a.452.452,0,0,0,.64-.64Z" transform="translate(-373.035 -373.036)"/>
      <path id="パス_6218" data-name="パス 6218" d="M308.744,448.764a.452.452,0,0,0-.874.234l.517,1.93a.452.452,0,1,0,.874-.234Z" transform="translate(-289.288 -421.384)"/>
      <path id="パス_6219" data-name="パス 6219" d="M450.927,308.392l-1.93-.517a.452.452,0,1,0-.234.874l1.93.517a.452.452,0,1,0,.234-.874Z" transform="translate(-421.383 -289.292)"/>
    </g>
  </g>
</svg>
